<svg version="1.1" viewBox="0.0 0.0 560.0 371.0" fill="none" stroke="none" stroke-linecap="square" stroke-miterlimit="10" width="560" height="371" xmlns:xlink="http://www.w3.org/1999/xlink" xmlns="http://www.w3.org/2000/svg"><path fill="#ffffff" d="M0 0L560.0 0L560.0 371.0L0 371.0L0 0Z" fill-rule="nonzero"/><path stroke="#333333" stroke-width="1.0" stroke-linecap="butt" d="M52.5 51.5L52.5 300.5" fill-rule="nonzero"/><path stroke="#cccccc" stroke-width="1.0" stroke-linecap="butt" d="M105.5 51.5L105.5 300.5" fill-rule="nonzero"/><path stroke="#cccccc" stroke-width="1.0" stroke-linecap="butt" d="M159.5 51.5L159.5 300.5" fill-rule="nonzero"/><path stroke="#cccccc" stroke-width="1.0" stroke-linecap="butt" d="M213.5 51.5L213.5 300.5" fill-rule="nonzero"/><path stroke="#cccccc" stroke-width="1.0" stroke-linecap="butt" d="M266.5 51.5L266.5 300.5" fill-rule="nonzero"/><path stroke="#cccccc" stroke-width="1.0" stroke-linecap="butt" d="M320.5 51.5L320.5 300.5" fill-rule="nonzero"/><path stroke="#cccccc" stroke-width="1.0" stroke-linecap="butt" d="M373.5 51.5L373.5 300.5" fill-rule="nonzero"/><path stroke="#cccccc" stroke-width="1.0" stroke-linecap="butt" d="M427.5 51.5L427.5 300.5" fill-rule="nonzero"/><path stroke="#cccccc" stroke-width="1.0" stroke-linecap="butt" d="M481.5 51.5L481.5 300.5" fill-rule="nonzero"/><path stroke="#cccccc" stroke-width="1.0" stroke-linecap="butt" d="M534.5 51.5L534.5 300.5" fill-rule="nonzero"/><path stroke="#333333" stroke-width="1.0" stroke-linecap="butt" d="M45.5 300.5L541.5 300.5" fill-rule="nonzero"/><path stroke="#cccccc" stroke-width="1.0" stroke-linecap="butt" d="M45.5 217.5L541.5 217.5" fill-rule="nonzero"/><path stroke="#cccccc" stroke-width="1.0" stroke-linecap="butt" d="M45.5 134.5L541.5 134.5" fill-rule="nonzero"/><path stroke="#cccccc" stroke-width="1.0" stroke-linecap="butt" d="M45.5 51.5L541.5 51.5" fill-rule="nonzero"/><clipPath id="id_0"><path d="M45.55 51.916668L541.45 51.916668L541.45 300.45L45.55 300.45L45.55 51.916668Z" clip-rule="nonzero"/></clipPath><path stroke="#fbbc04" stroke-width="2.0" stroke-linecap="butt" clip-path="url(#id_0)" d="M52.357807 51.916668L52.357807 51.916668M105.94496 68.48556L105.94496 68.48556M159.53212 93.33889L159.53212 93.33889M213.11926 217.60556L213.11926 217.60556M266.70642 225.89L266.70642 225.89M320.29358 234.17444L320.29358 234.17444M373.88074 259.02777L373.88074 259.02777M427.4679 283.8811L427.4679 283.8811M481.05505 292.16556L481.05505 292.16556M534.6422 293.82245L534.6422 293.82245" fill-rule="nonzero"/><path stroke="#ea4335" stroke-width="2.0" stroke-linecap="butt" clip-path="url(#id_0)" d="M52.357807 51.916668L57.716522 54.279186L63.075237 56.59894L68.43395 58.833164L73.79266 60.93909L79.15138 62.873955L84.5101 64.59499L89.86881 66.05944L95.22753 67.224525L100.58624 68.047485L105.94496 68.48556L111.30367 68.54702L116.66239 68.44437L122.0211 68.441124L127.37982 68.800835L132.73854 69.787025L138.09726 71.66323L143.45596 74.692986L148.81468 79.139824L154.1734 85.26728L159.53212 93.33889L164.89082 103.49683L170.24954 115.397865L175.60826 128.57738L180.96698 142.5708L186.3257 156.91351L191.6844 171.14091L197.04312 184.78842L202.40184 197.39143L207.76056 208.48534L213.11926 217.60556L218.47798 224.41533L223.8367 229.08928L229.19542 231.92992L234.55412 233.23972L239.91284 233.32115L245.27156 232.47673L250.63028 231.00891L255.989 229.2202L261.34772 227.41307L266.70642 225.89L272.06512 224.89484L277.42386 224.43677L282.78256 224.46637L288.1413 224.93417L293.5 225.79074L298.8587 226.98663L304.21744 228.4724L309.57614 230.19858L314.93488 232.11575L320.29358 234.17444L325.65228 236.33258L331.01102 238.57753L336.36972 240.90399L341.72842 243.30667L347.08716 245.78032L352.44586 248.31961L357.8046 250.9193L363.1633 253.57408L368.522 256.27866L373.88074 259.02777L379.23944 261.81223L384.59818 264.60706L389.95688 267.38348L395.31558 270.11267L400.67432 272.76578L406.03302 275.314L411.39175 277.72845L416.75046 279.98035L422.10916 282.04083L427.4679 283.8811L432.8266 285.48065L438.1853 286.85236L443.54404 288.01736L448.90274 288.9969L454.26147 289.81213L459.62018 290.48425L464.97888 291.03445L470.33762 291.48398L475.69632 291.85394L481.05505 292.16556L486.41376 292.43713L491.77246 292.67526L497.1312 292.88367L502.4899 293.06607L507.8486 293.2262L513.20734 293.36774L518.56604 293.49442L523.92474 293.60995L529.2835 293.71805L534.6422 293.82245" fill-rule="nonzero"/><path stroke="#4285f4" stroke-width="2.0" stroke-linecap="butt" clip-path="url(#id_0)" d="M52.357807 51.916668L57.716522 53.54373L63.075237 55.124405L68.43395 56.678566L73.79266 58.2261L79.15138 59.78689L84.5101 61.380817L89.86881 63.027763L95.22753 64.74761L100.58624 66.56025L105.94496 68.48556L111.30367 70.41914L116.66239 72.28977L122.0211 74.16703L127.37982 76.1205L132.73854 78.21978L138.09726 80.534454L143.45596 83.13411L148.81468 86.08834L154.1734 89.46674L159.53212 93.33889L164.89082 100.03375L170.24954 111.0676L175.60826 125.290955L180.96698 141.55435L186.3257 158.70833L191.6844 175.60342L197.04312 191.09015L202.40184 204.01907L207.76056 213.24069L213.11926 217.60556L218.47798 219.02116L223.8367 220.1903L229.19542 221.15648L234.55412 221.96318L239.91284 222.65388L245.27156 223.27211L250.63028 223.86134L255.989 224.46507L261.34772 225.1268L266.70642 225.89L272.06512 226.68117L277.42386 227.41434L282.78256 228.11438L288.1413 228.80612L293.5 229.51445L298.8587 230.26419L304.21744 231.0802L309.57614 231.98735L314.93488 233.01048L320.29358 234.17444L325.65228 235.65321L331.01102 237.5545L336.36972 239.80373L341.72842 242.32634L347.08716 245.04778L352.44586 247.89348L357.8046 250.7889L363.1633 253.65945L368.522 256.4306L373.88074 259.02777L379.23944 261.62494L384.59818 264.3961L389.95688 267.26666L395.31558 270.16208L400.67432 273.00778L406.03302 275.72922L411.39175 278.25183L416.75046 280.50107L422.10916 282.40234L427.4679 283.8811L432.8266 285.0948L438.1853 286.24493L443.54404 287.3233L448.90274 288.32156L454.26147 289.23148L459.62018 290.04474L464.97888 290.75305L470.33762 291.34814L475.69632 291.82175L481.05505 292.16556L486.41376 292.42072L491.77246 292.63834L497.1312 292.825L502.4899 292.98737L507.8486 293.13208L513.20734 293.26572L518.56604 293.39496L523.92474 293.52643L529.2835 293.6667L534.6422 293.82245" fill-rule="nonzero"/><path fill="#fbbc04" clip-path="url(#id_0)" d="M56.857807 51.916668C56.857807 54.401947 54.843086 56.416668 52.357807 56.416668C49.872524 56.416668 47.857807 54.401947 47.857807 51.916668C47.857807 49.431385 49.872524 47.416668 52.357807 47.416668C54.843086 47.416668 56.857807 49.431385 56.857807 51.916668Z" fill-rule="nonzero"/><path fill="#fbbc04" clip-path="url(#id_0)" d="M110.44496 68.48556C110.44496 70.97084 108.430244 72.98556 105.94496 72.98556C103.45968 72.98556 101.44496 70.97084 101.44496 68.48556C101.44496 66.000275 103.45968 63.985554 105.94496 63.985554C108.430244 63.985554 110.44496 66.000275 110.44496 68.48556Z" fill-rule="nonzero"/><path fill="#fbbc04" clip-path="url(#id_0)" d="M164.03212 93.33889C164.03212 95.82417 162.0174 97.83889 159.53212 97.83889C157.04683 97.83889 155.03212 95.82417 155.03212 93.33889C155.03212 90.85361 157.04683 88.83889 159.53212 88.83889C162.0174 88.83889 164.03212 90.85361 164.03212 93.33889Z" fill-rule="nonzero"/><path fill="#fbbc04" clip-path="url(#id_0)" d="M217.61926 217.60556C217.61926 220.09084 215.60455 222.10556 213.11926 222.10556C210.63399 222.10556 208.61926 220.09084 208.61926 217.60556C208.61926 215.12027 210.63399 213.10556 213.11926 213.10556C215.60455 213.10556 217.61926 215.12027 217.61926 217.60556Z" fill-rule="nonzero"/><path fill="#fbbc04" clip-path="url(#id_0)" d="M271.20642 225.89C271.20642 228.37527 269.1917 230.39 266.70642 230.39C264.22113 230.39 262.20642 228.37527 262.20642 225.89C262.20642 223.40472 264.22113 221.39 266.70642 221.39C269.1917 221.39 271.20642 223.40472 271.20642 225.89Z" fill-rule="nonzero"/><path fill="#fbbc04" clip-path="url(#id_0)" d="M324.79358 234.17444C324.79358 236.65973 322.77887 238.67444 320.29358 238.67444C317.8083 238.67444 315.79358 236.65973 315.79358 234.17444C315.79358 231.68916 317.8083 229.67444 320.29358 229.67444C322.77887 229.67444 324.79358 231.68916 324.79358 234.17444Z" fill-rule="nonzero"/><path fill="#fbbc04" clip-path="url(#id_0)" d="M378.38074 259.02777C378.38074 261.51306 376.36603 263.52777 373.88074 263.52777C371.39545 263.52777 369.38074 261.51306 369.38074 259.02777C369.38074 256.5425 371.39545 254.52777 373.88074 254.52777C376.36603 254.52777 378.38074 256.5425 378.38074 259.02777Z" fill-rule="nonzero"/><path fill="#fbbc04" clip-path="url(#id_0)" d="M431.9679 283.8811C431.9679 286.3664 429.95316 288.3811 427.4679 288.3811C424.9826 288.3811 422.9679 286.3664 422.9679 283.8811C422.9679 281.39584 424.9826 279.3811 427.4679 279.3811C429.95316 279.3811 431.9679 281.39584 431.9679 283.8811Z" fill-rule="nonzero"/><path fill="#fbbc04" clip-path="url(#id_0)" d="M485.55505 292.16556C485.55505 294.65085 483.5403 296.66556 481.05505 296.66556C478.56976 296.66556 476.55505 294.65085 476.55505 292.16556C476.55505 289.68027 478.56976 287.66556 481.05505 287.66556C483.5403 287.66556 485.55505 289.68027 485.55505 292.16556Z" fill-rule="nonzero"/><path fill="#fbbc04" clip-path="url(#id_0)" d="M539.1422 293.82245C539.1422 296.30774 537.1275 298.32245 534.6422 298.32245C532.1569 298.32245 530.1422 296.30774 530.1422 293.82245C530.1422 291.33716 532.1569 289.32245 534.6422 289.32245C537.1275 289.32245 539.1422 291.33716 539.1422 293.82245Z" fill-rule="nonzero"/><path fill="#000000" fill-opacity="0.0" clip-path="url(#id_0)" d="M55.357807 51.916668C55.357807 53.57352 54.01466 54.916668 52.357807 54.916668C50.70095 54.916668 49.357807 53.57352 49.357807 51.916668C49.357807 50.25981 50.70095 48.916668 52.357807 48.916668C54.01466 48.916668 55.357807 50.25981 55.357807 51.916668Z" fill-rule="nonzero"/><path fill="#000000" fill-opacity="0.0" clip-path="url(#id_0)" d="M60.716522 54.279186C60.716522 55.93604 59.373375 57.279186 57.716522 57.279186C56.059666 57.279186 54.716522 55.93604 54.716522 54.279186C54.716522 52.622334 56.059666 51.279186 57.716522 51.279186C59.373375 51.279186 60.716522 52.622334 60.716522 54.279186Z" fill-rule="nonzero"/><path fill="#000000" fill-opacity="0.0" clip-path="url(#id_0)" d="M66.07523 56.59894C66.07523 58.255795 64.73209 59.59894 63.075237 59.59894C61.41838 59.59894 60.075237 58.255795 60.075237 56.59894C60.075237 54.942085 61.41838 53.59894 63.075237 53.59894C64.73209 53.59894 66.07523 54.942085 66.07523 56.59894Z" fill-rule="nonzero"/><path fill="#000000" fill-opacity="0.0" clip-path="url(#id_0)" d="M71.43395 58.833164C71.43395 60.490017 70.090805 61.833164 68.43395 61.833164C66.7771 61.833164 65.43395 60.490017 65.43395 58.833164C65.43395 57.17631 66.7771 55.833164 68.43395 55.833164C70.090805 55.833164 71.43395 57.17631 71.43395 58.833164Z" fill-rule="nonzero"/><path fill="#000000" fill-opacity="0.0" clip-path="url(#id_0)" d="M76.79266 60.93909C76.79266 62.595943 75.449524 63.93909 73.79266 63.93909C72.13581 63.93909 70.79266 62.595943 70.79266 60.93909C70.79266 59.282238 72.13581 57.93909 73.79266 57.93909C75.449524 57.93909 76.79266 59.282238 76.79266 60.93909Z" fill-rule="nonzero"/><path fill="#000000" fill-opacity="0.0" clip-path="url(#id_0)" d="M82.15138 62.873955C82.15138 64.53081 80.808235 65.873955 79.15138 65.873955C77.49453 65.873955 76.15138 64.53081 76.15138 62.873955C76.15138 61.217102 77.49453 59.873955 79.15138 59.873955C80.808235 59.873955 82.15138 61.217102 82.15138 62.873955Z" fill-rule="nonzero"/><path fill="#000000" fill-opacity="0.0" clip-path="url(#id_0)" d="M87.5101 64.59499C87.5101 66.25185 86.166954 67.59499 84.5101 67.59499C82.85324 67.59499 81.5101 66.25185 81.5101 64.59499C81.5101 62.938137 82.85324 61.594994 84.5101 61.594994C86.166954 61.594994 87.5101 62.938137 87.5101 64.59499Z" fill-rule="nonzero"/><path fill="#000000" fill-opacity="0.0" clip-path="url(#id_0)" d="M92.86881 66.05944C92.86881 67.71629 91.525665 69.05944 89.86881 69.05944C88.21196 69.05944 86.86881 67.71629 86.86881 66.05944C86.86881 64.40258 88.21196 63.059437 89.86881 63.059437C91.525665 63.059437 92.86881 64.40258 92.86881 66.05944Z" fill-rule="nonzero"/><path fill="#000000" fill-opacity="0.0" clip-path="url(#id_0)" d="M98.22753 67.224525C98.22753 68.88138 96.884384 70.224525 95.22753 70.224525C93.57067 70.224525 92.22753 68.88138 92.22753 67.224525C92.22753 65.567665 93.57067 64.224525 95.22753 64.224525C96.884384 64.224525 98.22753 65.567665 98.22753 67.224525Z" fill-rule="nonzero"/><path fill="#000000" fill-opacity="0.0" clip-path="url(#id_0)" d="M103.58624 68.047485C103.58624 69.70434 102.243095 71.047485 100.58624 71.047485C98.92939 71.047485 97.58624 69.70434 97.58624 68.047485C97.58624 66.39063 98.92939 65.047485 100.58624 65.047485C102.243095 65.047485 103.58624 66.39063 103.58624 68.047485Z" fill-rule="nonzero"/><path fill="#000000" fill-opacity="0.0" clip-path="url(#id_0)" d="M108.94496 68.48556C108.94496 70.14241 107.601814 71.48556 105.94496 71.48556C104.28811 71.48556 102.94496 70.14241 102.94496 68.48556C102.94496 66.828705 104.28811 65.48556 105.94496 65.48556C107.601814 65.48556 108.94496 66.828705 108.94496 68.48556Z" fill-rule="nonzero"/><path fill="#000000" fill-opacity="0.0" clip-path="url(#id_0)" d="M114.30367 68.54702C114.30367 70.20388 112.96053 71.54702 111.30367 71.54702C109.64682 71.54702 108.30367 70.20388 108.30367 68.54702C108.30367 66.89017 109.64682 65.54702 111.30367 65.54702C112.96053 65.54702 114.30367 66.89017 114.30367 68.54702Z" fill-rule="nonzero"/><path fill="#000000" fill-opacity="0.0" clip-path="url(#id_0)" d="M119.66239 68.44437C119.66239 70.10122 118.319244 71.44437 116.66239 71.44437C115.00554 71.44437 113.66239 70.10122 113.66239 68.44437C113.66239 66.78751 115.00554 65.44437 116.66239 65.44437C118.319244 65.44437 119.66239 66.78751 119.66239 68.44437Z" fill-rule="nonzero"/><path fill="#000000" fill-opacity="0.0" clip-path="url(#id_0)" d="M125.0211 68.441124C125.0211 70.097984 123.67796 71.441124 122.0211 71.441124C120.36425 71.441124 119.0211 70.097984 119.0211 68.441124C119.0211 66.78427 120.36425 65.441124 122.0211 65.441124C123.67796 65.441124 125.0211 66.78427 125.0211 68.441124Z" fill-rule="nonzero"/><path fill="#000000" fill-opacity="0.0" clip-path="url(#id_0)" d="M130.37982 68.800835C130.37982 70.45769 129.03668 71.800835 127.37982 71.800835C125.72297 71.800835 124.37982 70.45769 124.37982 68.800835C124.37982 67.14398 125.72297 65.800835 127.37982 65.800835C129.03668 65.800835 130.37982 67.14398 130.37982 68.800835Z" fill-rule="nonzero"/><path fill="#000000" fill-opacity="0.0" clip-path="url(#id_0)" d="M135.73854 69.787025C135.73854 71.44388 134.39539 72.787025 132.73854 72.787025C131.08168 72.787025 129.73854 71.44388 129.73854 69.787025C129.73854 68.130165 131.08168 66.787025 132.73854 66.787025C134.39539 66.787025 135.73854 68.130165 135.73854 69.787025Z" fill-rule="nonzero"/><path fill="#000000" fill-opacity="0.0" clip-path="url(#id_0)" d="M141.09726 71.66323C141.09726 73.32008 139.7541 74.66323 138.09726 74.66323C136.4404 74.66323 135.09726 73.32008 135.09726 71.66323C135.09726 70.00637 136.4404 68.66323 138.09726 68.66323C139.7541 68.66323 141.09726 70.00637 141.09726 71.66323Z" fill-rule="nonzero"/><path fill="#000000" fill-opacity="0.0" clip-path="url(#id_0)" d="M146.45596 74.692986C146.45596 76.34984 145.11282 77.692986 143.45596 77.692986C141.79912 77.692986 140.45596 76.34984 140.45596 74.692986C140.45596 73.036125 141.79912 71.692986 143.45596 71.692986C145.11282 71.692986 146.45596 73.036125 146.45596 74.692986Z" fill-rule="nonzero"/><path fill="#000000" fill-opacity="0.0" clip-path="url(#id_0)" d="M151.81468 79.139824C151.81468 80.79668 150.47154 82.139824 148.81468 82.139824C147.15782 82.139824 145.81468 80.79668 145.81468 79.139824C145.81468 77.48296 147.15782 76.139824 148.81468 76.139824C150.47154 76.139824 151.81468 77.48296 151.81468 79.139824Z" fill-rule="nonzero"/><path fill="#000000" fill-opacity="0.0" clip-path="url(#id_0)" d="M157.1734 85.26728C157.1734 86.92413 155.83025 88.26728 154.1734 88.26728C152.51654 88.26728 151.1734 86.92413 151.1734 85.26728C151.1734 83.61043 152.51654 82.26728 154.1734 82.26728C155.83025 82.26728 157.1734 83.61043 157.1734 85.26728Z" fill-rule="nonzero"/><path fill="#000000" fill-opacity="0.0" clip-path="url(#id_0)" d="M162.53212 93.33889C162.53212 94.99574 161.18896 96.33889 159.53212 96.33889C157.87526 96.33889 156.53212 94.99574 156.53212 93.33889C156.53212 91.68204 157.87526 90.33889 159.53212 90.33889C161.18896 90.33889 162.53212 91.68204 162.53212 93.33889Z" fill-rule="nonzero"/><path fill="#000000" fill-opacity="0.0" clip-path="url(#id_0)" d="M167.89082 103.49683C167.89082 105.15369 166.54768 106.49683 164.89082 106.49683C163.23398 106.49683 161.89082 105.15369 161.89082 103.49683C161.89082 101.83997 163.23398 100.49683 164.89082 100.49683C166.54768 100.49683 167.89082 101.83997 167.89082 103.49683Z" fill-rule="nonzero"/><path fill="#000000" fill-opacity="0.0" clip-path="url(#id_0)" d="M173.24954 115.397865C173.24954 117.05472 171.9064 118.397865 170.24954 118.397865C168.5927 118.397865 167.24954 117.05472 167.24954 115.397865C167.24954 113.741005 168.5927 112.397865 170.24954 112.397865C171.9064 112.397865 173.24954 113.741005 173.24954 115.397865Z" fill-rule="nonzero"/><path fill="#000000" fill-opacity="0.0" clip-path="url(#id_0)" d="M178.60826 128.57738C178.60826 130.23424 177.26512 131.57738 175.60826 131.57738C173.9514 131.57738 172.60826 130.23424 172.60826 128.57738C172.60826 126.92053 173.9514 125.577385 175.60826 125.577385C177.26512 125.577385 178.60826 126.92053 178.60826 128.57738Z" fill-rule="nonzero"/><path fill="#000000" fill-opacity="0.0" clip-path="url(#id_0)" d="M183.96698 142.5708C183.96698 144.22766 182.62383 145.5708 180.96698 145.5708C179.31012 145.5708 177.96698 144.22766 177.96698 142.5708C177.96698 140.91394 179.31012 139.5708 180.96698 139.5708C182.62383 139.5708 183.96698 140.91394 183.96698 142.5708Z" fill-rule="nonzero"/><path fill="#000000" fill-opacity="0.0" clip-path="url(#id_0)" d="M189.3257 156.91351C189.3257 158.57036 187.98254 159.91351 186.3257 159.91351C184.66884 159.91351 183.3257 158.57036 183.3257 156.91351C183.3257 155.25665 184.66884 153.91351 186.3257 153.91351C187.98254 153.91351 189.3257 155.25665 189.3257 156.91351Z" fill-rule="nonzero"/><path fill="#000000" fill-opacity="0.0" clip-path="url(#id_0)" d="M194.6844 171.14091C194.6844 172.79778 193.34126 174.14091 191.6844 174.14091C190.02756 174.14091 188.6844 172.79778 188.6844 171.14091C188.6844 169.48407 190.02756 168.14091 191.6844 168.14091C193.34126 168.14091 194.6844 169.48407 194.6844 171.14091Z" fill-rule="nonzero"/><path fill="#000000" fill-opacity="0.0" clip-path="url(#id_0)" d="M200.04312 184.78842C200.04312 186.44528 198.69998 187.78842 197.04312 187.78842C195.38626 187.78842 194.04312 186.44528 194.04312 184.78842C194.04312 183.13158 195.38626 181.78842 197.04312 181.78842C198.69998 181.78842 200.04312 183.13158 200.04312 184.78842Z" fill-rule="nonzero"/><path fill="#000000" fill-opacity="0.0" clip-path="url(#id_0)" d="M205.40184 197.39143C205.40184 199.04828 204.05869 200.39143 202.40184 200.39143C200.74498 200.39143 199.40184 199.04828 199.40184 197.39143C199.40184 195.73457 200.74498 194.39143 202.40184 194.39143C204.05869 194.39143 205.40184 195.73457 205.40184 197.39143Z" fill-rule="nonzero"/><path fill="#000000" fill-opacity="0.0" clip-path="url(#id_0)" d="M210.76056 208.48534C210.76056 210.1422 209.4174 211.48534 207.76056 211.48534C206.1037 211.48534 204.76056 210.1422 204.76056 208.48534C204.76056 206.82849 206.1037 205.48534 207.76056 205.48534C209.4174 205.48534 210.76056 206.82849 210.76056 208.48534Z" fill-rule="nonzero"/><path fill="#000000" fill-opacity="0.0" clip-path="url(#id_0)" d="M216.11926 217.60556C216.11926 219.2624 214.77612 220.60556 213.11926 220.60556C211.46242 220.60556 210.11926 219.2624 210.11926 217.60556C210.11926 215.9487 211.46242 214.60556 213.11926 214.60556C214.77612 214.60556 216.11926 215.9487 216.11926 217.60556Z" fill-rule="nonzero"/><path fill="#000000" fill-opacity="0.0" clip-path="url(#id_0)" d="M221.47798 224.41533C221.47798 226.07217 220.13484 227.41533 218.47798 227.41533C216.82114 227.41533 215.47798 226.07217 215.47798 224.41533C215.47798 222.75847 216.82114 221.41533 218.47798 221.41533C220.13484 221.41533 221.47798 222.75847 221.47798 224.41533Z" fill-rule="nonzero"/><path fill="#000000" fill-opacity="0.0" clip-path="url(#id_0)" d="M226.8367 229.08928C226.8367 230.74614 225.49356 232.08928 223.8367 232.08928C222.17984 232.08928 220.8367 230.74614 220.8367 229.08928C220.8367 227.43243 222.17984 226.08928 223.8367 226.08928C225.49356 226.08928 226.8367 227.43243 226.8367 229.08928Z" fill-rule="nonzero"/><path fill="#000000" fill-opacity="0.0" clip-path="url(#id_0)" d="M232.19542 231.92992C232.19542 233.58678 230.85226 234.92992 229.19542 234.92992C227.53856 234.92992 226.19542 233.58678 226.19542 231.92992C226.19542 230.27307 227.53856 228.92992 229.19542 228.92992C230.85226 228.92992 232.19542 230.27307 232.19542 231.92992Z" fill-rule="nonzero"/><path fill="#000000" fill-opacity="0.0" clip-path="url(#id_0)" d="M237.55412 233.23972C237.55412 234.89658 236.21098 236.23972 234.55412 236.23972C232.89728 236.23972 231.55412 234.89658 231.55412 233.23972C231.55412 231.58287 232.89728 230.23972 234.55412 230.23972C236.21098 230.23972 237.55412 231.58287 237.55412 233.23972Z" fill-rule="nonzero"/><path fill="#000000" fill-opacity="0.0" clip-path="url(#id_0)" d="M242.91284 233.32115C242.91284 234.97801 241.5697 236.32115 239.91284 236.32115C238.256 236.32115 236.91284 234.97801 236.91284 233.32115C236.91284 231.6643 238.256 230.32115 239.91284 230.32115C241.5697 230.32115 242.91284 231.6643 242.91284 233.32115Z" fill-rule="nonzero"/><path fill="#000000" fill-opacity="0.0" clip-path="url(#id_0)" d="M248.27156 232.47673C248.27156 234.13359 246.92842 235.47673 245.27156 235.47673C243.6147 235.47673 242.27156 234.13359 242.27156 232.47673C242.27156 230.81987 243.6147 229.47673 245.27156 229.47673C246.92842 229.47673 248.27156 230.81987 248.27156 232.47673Z" fill-rule="nonzero"/><path fill="#000000" fill-opacity="0.0" clip-path="url(#id_0)" d="M253.63028 231.00891C253.63028 232.66577 252.28712 234.00891 250.63028 234.00891C248.97342 234.00891 247.63028 232.66577 247.63028 231.00891C247.63028 229.35207 248.97342 228.00891 250.63028 228.00891C252.28712 228.00891 253.63028 229.35207 253.63028 231.00891Z" fill-rule="nonzero"/><path fill="#000000" fill-opacity="0.0" clip-path="url(#id_0)" d="M258.98898 229.2202C258.98898 230.87706 257.64584 232.2202 255.989 232.2202C254.33214 232.2202 252.989 230.87706 252.989 229.2202C252.989 227.56334 254.33214 226.2202 255.989 226.2202C257.64584 226.2202 258.98898 227.56334 258.98898 229.2202Z" fill-rule="nonzero"/><path fill="#000000" fill-opacity="0.0" clip-path="url(#id_0)" d="M264.34772 227.41307C264.34772 229.06992 263.00455 230.41307 261.34772 230.41307C259.69086 230.41307 258.34772 229.06992 258.34772 227.41307C258.34772 225.75621 259.69086 224.41307 261.34772 224.41307C263.00455 224.41307 264.34772 225.75621 264.34772 227.41307Z" fill-rule="nonzero"/><path fill="#000000" fill-opacity="0.0" clip-path="url(#id_0)" d="M269.70642 225.89C269.70642 227.54686 268.36328 228.89 266.70642 228.89C265.04956 228.89 263.70642 227.54686 263.70642 225.89C263.70642 224.23314 265.04956 222.89 266.70642 222.89C268.36328 222.89 269.70642 224.23314 269.70642 225.89Z" fill-rule="nonzero"/><path fill="#000000" fill-opacity="0.0" clip-path="url(#id_0)" d="M275.06512 224.89484C275.06512 226.55168 273.722 227.89484 272.06512 227.89484C270.4083 227.89484 269.06512 226.55168 269.06512 224.89484C269.06512 223.23798 270.4083 221.89484 272.06512 221.89484C273.722 221.89484 275.06512 223.23798 275.06512 224.89484Z" fill-rule="nonzero"/><path fill="#000000" fill-opacity="0.0" clip-path="url(#id_0)" d="M280.42386 224.43677C280.42386 226.09363 279.08072 227.43677 277.42386 227.43677C275.767 227.43677 274.42386 226.09363 274.42386 224.43677C274.42386 222.7799 275.767 221.43677 277.42386 221.43677C279.08072 221.43677 280.42386 222.7799 280.42386 224.43677Z" fill-rule="nonzero"/><path fill="#000000" fill-opacity="0.0" clip-path="url(#id_0)" d="M285.78256 224.46637C285.78256 226.12321 284.43942 227.46637 282.78256 227.46637C281.1257 227.46637 279.78256 226.12321 279.78256 224.46637C279.78256 222.80951 281.1257 221.46637 282.78256 221.46637C284.43942 221.46637 285.78256 222.80951 285.78256 224.46637Z" fill-rule="nonzero"/><path fill="#000000" fill-opacity="0.0" clip-path="url(#id_0)" d="M291.1413 224.93417C291.1413 226.59102 289.79813 227.93417 288.1413 227.93417C286.48444 227.93417 285.1413 226.59102 285.1413 224.93417C285.1413 223.27731 286.48444 221.93417 288.1413 221.93417C289.79813 221.93417 291.1413 223.27731 291.1413 224.93417Z" fill-rule="nonzero"/><path fill="#000000" fill-opacity="0.0" clip-path="url(#id_0)" d="M296.5 225.79074C296.5 227.4476 295.15686 228.79074 293.5 228.79074C291.84314 228.79074 290.5 227.4476 290.5 225.79074C290.5 224.1339 291.84314 222.79074 293.5 222.79074C295.15686 222.79074 296.5 224.1339 296.5 225.79074Z" fill-rule="nonzero"/><path fill="#000000" fill-opacity="0.0" clip-path="url(#id_0)" d="M301.8587 226.98663C301.8587 228.6435 300.51556 229.98663 298.8587 229.98663C297.20187 229.98663 295.8587 228.6435 295.8587 226.98663C295.8587 225.32977 297.20187 223.98663 298.8587 223.98663C300.51556 223.98663 301.8587 225.32977 301.8587 226.98663Z" fill-rule="nonzero"/><path fill="#000000" fill-opacity="0.0" clip-path="url(#id_0)" d="M307.21744 228.4724C307.21744 230.12926 305.8743 231.4724 304.21744 231.4724C302.56058 231.4724 301.21744 230.12926 301.21744 228.4724C301.21744 226.81554 302.56058 225.4724 304.21744 225.4724C305.8743 225.4724 307.21744 226.81554 307.21744 228.4724Z" fill-rule="nonzero"/><path fill="#000000" fill-opacity="0.0" clip-path="url(#id_0)" d="M312.57614 230.19858C312.57614 231.85544 311.233 233.19858 309.57614 233.19858C307.91928 233.19858 306.57614 231.85544 306.57614 230.19858C306.57614 228.54173 307.91928 227.19858 309.57614 227.19858C311.233 227.19858 312.57614 228.54173 312.57614 230.19858Z" fill-rule="nonzero"/><path fill="#000000" fill-opacity="0.0" clip-path="url(#id_0)" d="M317.93488 232.11575C317.93488 233.7726 316.5917 235.11575 314.93488 235.11575C313.278 235.11575 311.93488 233.7726 311.93488 232.11575C311.93488 230.4589 313.278 229.11575 314.93488 229.11575C316.5917 229.11575 317.93488 230.4589 317.93488 232.11575Z" fill-rule="nonzero"/><path fill="#000000" fill-opacity="0.0" clip-path="url(#id_0)" d="M323.29358 234.17444C323.29358 235.8313 321.95044 237.17444 320.29358 237.17444C318.63672 237.17444 317.29358 235.8313 317.29358 234.17444C317.29358 232.5176 318.63672 231.17444 320.29358 231.17444C321.95044 231.17444 323.29358 232.5176 323.29358 234.17444Z" fill-rule="nonzero"/><path fill="#000000" fill-opacity="0.0" clip-path="url(#id_0)" d="M328.65228 236.33258C328.65228 237.98944 327.30914 239.33258 325.65228 239.33258C323.99545 239.33258 322.65228 237.98944 322.65228 236.33258C322.65228 234.67574 323.99545 233.33258 325.65228 233.33258C327.30914 233.33258 328.65228 234.67574 328.65228 236.33258Z" fill-rule="nonzero"/><path fill="#000000" fill-opacity="0.0" clip-path="url(#id_0)" d="M334.01102 238.57753C334.01102 240.23438 332.66788 241.57753 331.01102 241.57753C329.35416 241.57753 328.01102 240.23438 328.01102 238.57753C328.01102 236.92067 329.35416 235.57753 331.01102 235.57753C332.66788 235.57753 334.01102 236.92067 334.01102 238.57753Z" fill-rule="nonzero"/><path fill="#000000" fill-opacity="0.0" clip-path="url(#id_0)" d="M339.36972 240.90399C339.36972 242.56084 338.02658 243.90399 336.36972 243.90399C334.71286 243.90399 333.36972 242.56084 333.36972 240.90399C333.36972 239.24713 334.71286 237.90399 336.36972 237.90399C338.02658 237.90399 339.36972 239.24713 339.36972 240.90399Z" fill-rule="nonzero"/><path fill="#000000" fill-opacity="0.0" clip-path="url(#id_0)" d="M344.72842 243.30667C344.72842 244.96353 343.38528 246.30667 341.72842 246.30667C340.0716 246.30667 338.72842 244.96353 338.72842 243.30667C338.72842 241.64983 340.0716 240.30667 341.72842 240.30667C343.38528 240.30667 344.72842 241.64983 344.72842 243.30667Z" fill-rule="nonzero"/><path fill="#000000" fill-opacity="0.0" clip-path="url(#id_0)" d="M350.08716 245.78032C350.08716 247.43716 348.74402 248.78032 347.08716 248.78032C345.4303 248.78032 344.08716 247.43716 344.08716 245.78032C344.08716 244.12346 345.4303 242.78032 347.08716 242.78032C348.74402 242.78032 350.08716 244.12346 350.08716 245.78032Z" fill-rule="nonzero"/><path fill="#000000" fill-opacity="0.0" clip-path="url(#id_0)" d="M355.44586 248.31961C355.44586 249.97647 354.10272 251.31961 352.44586 251.31961C350.789 251.31961 349.44586 249.97647 349.44586 248.31961C349.44586 246.66277 350.789 245.31961 352.44586 245.31961C354.10272 245.31961 355.44586 246.66277 355.44586 248.31961Z" fill-rule="nonzero"/><path fill="#000000" fill-opacity="0.0" clip-path="url(#id_0)" d="M360.8046 250.9193C360.8046 252.57616 359.46143 253.9193 357.8046 253.9193C356.14774 253.9193 354.8046 252.57616 354.8046 250.9193C354.8046 249.26244 356.14774 247.9193 357.8046 247.9193C359.46143 247.9193 360.8046 249.26244 360.8046 250.9193Z" fill-rule="nonzero"/><path fill="#000000" fill-opacity="0.0" clip-path="url(#id_0)" d="M366.1633 253.57408C366.1633 255.23093 364.82016 256.57407 363.1633 256.57407C361.50644 256.57407 360.1633 255.23093 360.1633 253.57408C360.1633 251.91722 361.50644 250.57408 363.1633 250.57408C364.82016 250.57408 366.1633 251.91722 366.1633 253.57408Z" fill-rule="nonzero"/><path fill="#000000" fill-opacity="0.0" clip-path="url(#id_0)" d="M371.522 256.27866C371.522 257.93552 370.17886 259.27866 368.522 259.27866C366.86517 259.27866 365.522 257.93552 365.522 256.27866C365.522 254.62181 366.86517 253.27866 368.522 253.27866C370.17886 253.27866 371.522 254.62181 371.522 256.27866Z" fill-rule="nonzero"/><path fill="#000000" fill-opacity="0.0" clip-path="url(#id_0)" d="M376.88074 259.02777C376.88074 260.68463 375.5376 262.02777 373.88074 262.02777C372.22388 262.02777 370.88074 260.68463 370.88074 259.02777C370.88074 257.3709 372.22388 256.02777 373.88074 256.02777C375.5376 256.02777 376.88074 257.3709 376.88074 259.02777Z" fill-rule="nonzero"/><path fill="#000000" fill-opacity="0.0" clip-path="url(#id_0)" d="M382.23944 261.81223C382.23944 263.46906 380.8963 264.81223 379.23944 264.81223C377.58258 264.81223 376.23944 263.46906 376.23944 261.81223C376.23944 260.15536 377.58258 258.81223 379.23944 258.81223C380.8963 258.81223 382.23944 260.15536 382.23944 261.81223Z" fill-rule="nonzero"/><path fill="#000000" fill-opacity="0.0" clip-path="url(#id_0)" d="M387.59818 264.60706C387.59818 266.26392 386.255 267.60706 384.59818 267.60706C382.9413 267.60706 381.59818 266.26392 381.59818 264.60706C381.59818 262.9502 382.9413 261.60706 384.59818 261.60706C386.255 261.60706 387.59818 262.9502 387.59818 264.60706Z" fill-rule="nonzero"/><path fill="#000000" fill-opacity="0.0" clip-path="url(#id_0)" d="M392.95688 267.38348C392.95688 269.04034 391.61374 270.38348 389.95688 270.38348C388.30002 270.38348 386.95688 269.04034 386.95688 267.38348C386.95688 265.72662 388.30002 264.38348 389.95688 264.38348C391.61374 264.38348 392.95688 265.72662 392.95688 267.38348Z" fill-rule="nonzero"/><path fill="#000000" fill-opacity="0.0" clip-path="url(#id_0)" d="M398.31558 270.11267C398.31558 271.76953 396.97244 273.11267 395.31558 273.11267C393.65875 273.11267 392.31558 271.76953 392.31558 270.11267C392.31558 268.4558 393.65875 267.11267 395.31558 267.11267C396.97244 267.11267 398.31558 268.4558 398.31558 270.11267Z" fill-rule="nonzero"/><path fill="#000000" fill-opacity="0.0" clip-path="url(#id_0)" d="M403.67432 272.76578C403.67432 274.42264 402.33118 275.76578 400.67432 275.76578C399.01746 275.76578 397.67432 274.42264 397.67432 272.76578C397.67432 271.10892 399.01746 269.76578 400.67432 269.76578C402.33118 269.76578 403.67432 271.10892 403.67432 272.76578Z" fill-rule="nonzero"/><path fill="#000000" fill-opacity="0.0" clip-path="url(#id_0)" d="M409.03302 275.314C409.03302 276.97083 407.68988 278.314 406.03302 278.314C404.37616 278.314 403.03302 276.97083 403.03302 275.314C403.03302 273.65714 404.37616 272.314 406.03302 272.314C407.68988 272.314 409.03302 273.65714 409.03302 275.314Z" fill-rule="nonzero"/><path fill="#000000" fill-opacity="0.0" clip-path="url(#id_0)" d="M414.39175 277.72845C414.39175 279.38528 413.04858 280.72845 411.39175 280.72845C409.7349 280.72845 408.39175 279.38528 408.39175 277.72845C408.39175 276.0716 409.7349 274.72845 411.39175 274.72845C413.04858 274.72845 414.39175 276.0716 414.39175 277.72845Z" fill-rule="nonzero"/><path fill="#000000" fill-opacity="0.0" clip-path="url(#id_0)" d="M419.75046 279.98035C419.75046 281.6372 418.40732 282.98035 416.75046 282.98035C415.0936 282.98035 413.75046 281.6372 413.75046 279.98035C413.75046 278.3235 415.0936 276.98035 416.75046 276.98035C418.40732 276.98035 419.75046 278.3235 419.75046 279.98035Z" fill-rule="nonzero"/><path fill="#000000" fill-opacity="0.0" clip-path="url(#id_0)" d="M425.10916 282.04083C425.10916 283.6977 423.76602 285.04083 422.10916 285.04083C420.4523 285.04083 419.10916 283.6977 419.10916 282.04083C419.10916 280.38397 420.4523 279.04083 422.10916 279.04083C423.76602 279.04083 425.10916 280.38397 425.10916 282.04083Z" fill-rule="nonzero"/><path fill="#000000" fill-opacity="0.0" clip-path="url(#id_0)" d="M430.4679 283.8811C430.4679 285.53796 429.12473 286.8811 427.4679 286.8811C425.81104 286.8811 424.4679 285.53796 424.4679 283.8811C424.4679 282.22424 425.81104 280.8811 427.4679 280.8811C429.12473 280.8811 430.4679 282.22424 430.4679 283.8811Z" fill-rule="nonzero"/><path fill="#000000" fill-opacity="0.0" clip-path="url(#id_0)" d="M435.8266 285.48065C435.8266 287.1375 434.48346 288.48065 432.8266 288.48065C431.16974 288.48065 429.8266 287.1375 429.8266 285.48065C429.8266 283.82382 431.16974 282.48065 432.8266 282.48065C434.48346 282.48065 435.8266 283.82382 435.8266 285.48065Z" fill-rule="nonzero"/><path fill="#000000" fill-opacity="0.0" clip-path="url(#id_0)" d="M441.1853 286.85236C441.1853 288.50922 439.84216 289.85236 438.1853 289.85236C436.52847 289.85236 435.1853 288.50922 435.1853 286.85236C435.1853 285.1955 436.52847 283.85236 438.1853 283.85236C439.84216 283.85236 441.1853 285.1955 441.1853 286.85236Z" fill-rule="nonzero"/><path fill="#000000" fill-opacity="0.0" clip-path="url(#id_0)" d="M446.54404 288.01736C446.54404 289.67422 445.2009 291.01736 443.54404 291.01736C441.88718 291.01736 440.54404 289.67422 440.54404 288.01736C440.54404 286.3605 441.88718 285.01736 443.54404 285.01736C445.2009 285.01736 446.54404 286.3605 446.54404 288.01736Z" fill-rule="nonzero"/><path fill="#000000" fill-opacity="0.0" clip-path="url(#id_0)" d="M451.90274 288.9969C451.90274 290.65375 450.5596 291.9969 448.90274 291.9969C447.24588 291.9969 445.90274 290.65375 445.90274 288.9969C445.90274 287.34003 447.24588 285.9969 448.90274 285.9969C450.5596 285.9969 451.90274 287.34003 451.90274 288.9969Z" fill-rule="nonzero"/><path fill="#000000" fill-opacity="0.0" clip-path="url(#id_0)" d="M457.26147 289.81213C457.26147 291.46896 455.9183 292.81213 454.26147 292.81213C452.6046 292.81213 451.26147 291.46896 451.26147 289.81213C451.26147 288.15527 452.6046 286.81213 454.26147 286.81213C455.9183 286.81213 457.26147 288.15527 457.26147 289.81213Z" fill-rule="nonzero"/><path fill="#000000" fill-opacity="0.0" clip-path="url(#id_0)" d="M462.62018 290.48425C462.62018 292.1411 461.27704 293.48425 459.62018 293.48425C457.96332 293.48425 456.62018 292.1411 456.62018 290.48425C456.62018 288.8274 457.96332 287.48425 459.62018 287.48425C461.27704 287.48425 462.62018 288.8274 462.62018 290.48425Z" fill-rule="nonzero"/><path fill="#000000" fill-opacity="0.0" clip-path="url(#id_0)" d="M467.97888 291.03445C467.97888 292.6913 466.63574 294.03445 464.97888 294.03445C463.32205 294.03445 461.97888 292.6913 461.97888 291.03445C461.97888 289.37762 463.32205 288.03445 464.97888 288.03445C466.63574 288.03445 467.97888 289.37762 467.97888 291.03445Z" fill-rule="nonzero"/><path fill="#000000" fill-opacity="0.0" clip-path="url(#id_0)" d="M473.33762 291.48398C473.33762 293.1408 471.99448 294.48398 470.33762 294.48398C468.68076 294.48398 467.33762 293.1408 467.33762 291.48398C467.33762 289.82712 468.68076 288.48398 470.33762 288.48398C471.99448 288.48398 473.33762 289.82712 473.33762 291.48398Z" fill-rule="nonzero"/><path fill="#000000" fill-opacity="0.0" clip-path="url(#id_0)" d="M478.69632 291.85394C478.69632 293.51077 477.35318 294.85394 475.69632 294.85394C474.03946 294.85394 472.69632 293.51077 472.69632 291.85394C472.69632 290.19708 474.03946 288.85394 475.69632 288.85394C477.35318 288.85394 478.69632 290.19708 478.69632 291.85394Z" fill-rule="nonzero"/><path fill="#000000" fill-opacity="0.0" clip-path="url(#id_0)" d="M484.05505 292.16556C484.05505 293.82242 482.71188 295.16556 481.05505 295.16556C479.3982 295.16556 478.05505 293.82242 478.05505 292.16556C478.05505 290.5087 479.3982 289.16556 481.05505 289.16556C482.71188 289.16556 484.05505 290.5087 484.05505 292.16556Z" fill-rule="nonzero"/><path fill="#000000" fill-opacity="0.0" clip-path="url(#id_0)" d="M489.41376 292.43713C489.41376 294.09396 488.07062 295.43713 486.41376 295.43713C484.7569 295.43713 483.41376 294.09396 483.41376 292.43713C483.41376 290.78027 484.7569 289.43713 486.41376 289.43713C488.07062 289.43713 489.41376 290.78027 489.41376 292.43713Z" fill-rule="nonzero"/><path fill="#000000" fill-opacity="0.0" clip-path="url(#id_0)" d="M494.77246 292.67526C494.77246 294.3321 493.42932 295.67526 491.77246 295.67526C490.11563 295.67526 488.77246 294.3321 488.77246 292.67526C488.77246 291.0184 490.11563 289.67526 491.77246 289.67526C493.42932 289.67526 494.77246 291.0184 494.77246 292.67526Z" fill-rule="nonzero"/><path fill="#000000" fill-opacity="0.0" clip-path="url(#id_0)" d="M500.1312 292.88367C500.1312 294.54053 498.78806 295.88367 497.1312 295.88367C495.47433 295.88367 494.1312 294.54053 494.1312 292.88367C494.1312 291.2268 495.47433 289.88367 497.1312 289.88367C498.78806 289.88367 500.1312 291.2268 500.1312 292.88367Z" fill-rule="nonzero"/><path fill="#000000" fill-opacity="0.0" clip-path="url(#id_0)" d="M505.4899 293.06607C505.4899 294.72293 504.14676 296.06607 502.4899 296.06607C500.83304 296.06607 499.4899 294.72293 499.4899 293.06607C499.4899 291.4092 500.83304 290.06607 502.4899 290.06607C504.14676 290.06607 505.4899 291.4092 505.4899 293.06607Z" fill-rule="nonzero"/><path fill="#000000" fill-opacity="0.0" clip-path="url(#id_0)" d="M510.8486 293.2262C510.8486 294.88303 509.50546 296.2262 507.8486 296.2262C506.19177 296.2262 504.8486 294.88303 504.8486 293.2262C504.8486 291.56934 506.19177 290.2262 507.8486 290.2262C509.50546 290.2262 510.8486 291.56934 510.8486 293.2262Z" fill-rule="nonzero"/><path fill="#000000" fill-opacity="0.0" clip-path="url(#id_0)" d="M516.20734 293.36774C516.20734 295.02457 514.8642 296.36774 513.20734 296.36774C511.55048 296.36774 510.20734 295.02457 510.20734 293.36774C510.20734 291.71088 511.55048 290.36774 513.20734 290.36774C514.8642 290.36774 516.20734 291.71088 516.20734 293.36774Z" fill-rule="nonzero"/><path fill="#000000" fill-opacity="0.0" clip-path="url(#id_0)" d="M521.56604 293.49442C521.56604 295.15128 520.2229 296.49442 518.56604 296.49442C516.9092 296.49442 515.56604 295.15128 515.56604 293.49442C515.56604 291.83755 516.9092 290.49442 518.56604 290.49442C520.2229 290.49442 521.56604 291.83755 521.56604 293.49442Z" fill-rule="nonzero"/><path fill="#000000" fill-opacity="0.0" clip-path="url(#id_0)" d="M526.92474 293.60995C526.92474 295.26678 525.5816 296.60995 523.92474 296.60995C522.2679 296.60995 520.92474 295.26678 520.92474 293.60995C520.92474 291.9531 522.2679 290.60995 523.92474 290.60995C525.5816 290.60995 526.92474 291.9531 526.92474 293.60995Z" fill-rule="nonzero"/><path fill="#000000" fill-opacity="0.0" clip-path="url(#id_0)" d="M532.2835 293.71805C532.2835 295.3749 530.9403 296.71805 529.2835 296.71805C527.62665 296.71805 526.2835 295.3749 526.2835 293.71805C526.2835 292.0612 527.62665 290.71805 529.2835 290.71805C530.9403 290.71805 532.2835 292.0612 532.2835 293.71805Z" fill-rule="nonzero"/><path fill="#000000" fill-opacity="0.0" clip-path="url(#id_0)" d="M537.6422 293.82245C537.6422 295.4793 536.2991 296.82245 534.6422 296.82245C532.98535 296.82245 531.6422 295.4793 531.6422 293.82245C531.6422 292.1656 532.98535 290.82245 534.6422 290.82245C536.2991 290.82245 537.6422 292.1656 537.6422 293.82245Z" fill-rule="nonzero"/><path fill="#4285f4" clip-path="url(#id_0)" d="M52.357807 51.916668C52.357807 51.916668 52.357807 51.916668 52.357807 51.916668C52.357807 51.916668 52.357807 51.916668 52.357807 51.916668C52.357807 51.916668 52.357807 51.916668 52.357807 51.916668C52.357807 51.916668 52.357807 51.916668 52.357807 51.916668Z" fill-rule="nonzero"/><path fill="#4285f4" clip-path="url(#id_0)" d="M57.716522 53.54373C57.716522 53.54373 57.716522 53.54373 57.716522 53.54373C57.716522 53.54373 57.716522 53.54373 57.716522 53.54373C57.716522 53.54373 57.716522 53.54373 57.716522 53.54373C57.716522 53.54373 57.716522 53.54373 57.716522 53.54373Z" fill-rule="nonzero"/><path fill="#4285f4" clip-path="url(#id_0)" d="M63.075237 55.124405C63.075237 55.124405 63.075237 55.124405 63.075237 55.124405C63.075237 55.124405 63.075237 55.124405 63.075237 55.124405C63.075237 55.124405 63.075237 55.124405 63.075237 55.124405C63.075237 55.124405 63.075237 55.124405 63.075237 55.124405Z" fill-rule="nonzero"/><path fill="#4285f4" clip-path="url(#id_0)" d="M68.43395 56.678566C68.43395 56.678566 68.43395 56.678566 68.43395 56.678566C68.43395 56.678566 68.43395 56.678566 68.43395 56.678566C68.43395 56.678566 68.43395 56.678566 68.43395 56.678566C68.43395 56.678566 68.43395 56.678566 68.43395 56.678566Z" fill-rule="nonzero"/><path fill="#4285f4" clip-path="url(#id_0)" d="M73.79266 58.2261C73.79266 58.2261 73.79266 58.2261 73.79266 58.2261C73.79266 58.2261 73.79266 58.2261 73.79266 58.2261C73.79266 58.2261 73.79266 58.2261 73.79266 58.2261C73.79266 58.2261 73.79266 58.2261 73.79266 58.2261Z" fill-rule="nonzero"/><path fill="#4285f4" clip-path="url(#id_0)" d="M79.15138 59.78689C79.15138 59.78689 79.15138 59.78689 79.15138 59.78689C79.15138 59.78689 79.15138 59.78689 79.15138 59.78689C79.15138 59.78689 79.15138 59.78689 79.15138 59.78689C79.15138 59.78689 79.15138 59.78689 79.15138 59.78689Z" fill-rule="nonzero"/><path fill="#4285f4" clip-path="url(#id_0)" d="M84.5101 61.380817C84.5101 61.380817 84.5101 61.380817 84.5101 61.380817C84.5101 61.380817 84.5101 61.380817 84.5101 61.380817C84.5101 61.380817 84.5101 61.380817 84.5101 61.380817C84.5101 61.380817 84.5101 61.380817 84.5101 61.380817Z" fill-rule="nonzero"/><path fill="#4285f4" clip-path="url(#id_0)" d="M89.86881 63.027763C89.86881 63.027763 89.86881 63.027763 89.86881 63.027763C89.86881 63.027763 89.86881 63.027763 89.86881 63.027763C89.86881 63.027763 89.86881 63.027763 89.86881 63.027763C89.86881 63.027763 89.86881 63.027763 89.86881 63.027763Z" fill-rule="nonzero"/><path fill="#4285f4" clip-path="url(#id_0)" d="M95.22753 64.74761C95.22753 64.74761 95.22753 64.74761 95.22753 64.74761C95.22753 64.74761 95.22753 64.74761 95.22753 64.74761C95.22753 64.74761 95.22753 64.74761 95.22753 64.74761C95.22753 64.74761 95.22753 64.74761 95.22753 64.74761Z" fill-rule="nonzero"/><path fill="#4285f4" clip-path="url(#id_0)" d="M100.58624 66.56025C100.58624 66.56025 100.58624 66.56025 100.58624 66.56025C100.58624 66.56025 100.58624 66.56025 100.58624 66.56025C100.58624 66.56025 100.58624 66.56025 100.58624 66.56025C100.58624 66.56025 100.58624 66.56025 100.58624 66.56025Z" fill-rule="nonzero"/><path fill="#4285f4" clip-path="url(#id_0)" d="M105.94496 68.48556C105.94496 68.48556 105.94496 68.48556 105.94496 68.48556C105.94496 68.48556 105.94496 68.48556 105.94496 68.48556C105.94496 68.48556 105.94496 68.48556 105.94496 68.48556C105.94496 68.48556 105.94496 68.48556 105.94496 68.48556Z" fill-rule="nonzero"/><path fill="#4285f4" clip-path="url(#id_0)" d="M111.30367 70.41914C111.30367 70.41914 111.30367 70.41914 111.30367 70.41914C111.30367 70.41914 111.30367 70.41914 111.30367 70.41914C111.30367 70.41914 111.30367 70.41914 111.30367 70.41914C111.30367 70.41914 111.30367 70.41914 111.30367 70.41914Z" fill-rule="nonzero"/><path fill="#4285f4" clip-path="url(#id_0)" d="M116.66239 72.28977C116.66239 72.28977 116.66239 72.28977 116.66239 72.28977C116.66239 72.28977 116.66239 72.28977 116.66239 72.28977C116.66239 72.28977 116.66239 72.28977 116.66239 72.28977C116.66239 72.28977 116.66239 72.28977 116.66239 72.28977Z" fill-rule="nonzero"/><path fill="#4285f4" clip-path="url(#id_0)" d="M122.0211 74.16703C122.0211 74.16703 122.0211 74.16703 122.0211 74.16703C122.0211 74.16703 122.0211 74.16703 122.0211 74.16703C122.0211 74.16703 122.0211 74.16703 122.0211 74.16703C122.0211 74.16703 122.0211 74.16703 122.0211 74.16703Z" fill-rule="nonzero"/><path fill="#4285f4" clip-path="url(#id_0)" d="M127.37982 76.1205C127.37982 76.1205 127.37982 76.1205 127.37982 76.1205C127.37982 76.1205 127.37982 76.1205 127.37982 76.1205C127.37982 76.1205 127.37982 76.1205 127.37982 76.1205C127.37982 76.1205 127.37982 76.1205 127.37982 76.1205Z" fill-rule="nonzero"/><path fill="#4285f4" clip-path="url(#id_0)" d="M132.73854 78.21978C132.73854 78.21978 132.73854 78.21978 132.73854 78.21978C132.73854 78.21978 132.73854 78.21978 132.73854 78.21978C132.73854 78.21978 132.73854 78.21978 132.73854 78.21978C132.73854 78.21978 132.73854 78.21978 132.73854 78.21978Z" fill-rule="nonzero"/><path fill="#4285f4" clip-path="url(#id_0)" d="M138.09726 80.534454C138.09726 80.534454 138.09726 80.534454 138.09726 80.534454C138.09726 80.534454 138.09726 80.534454 138.09726 80.534454C138.09726 80.534454 138.09726 80.534454 138.09726 80.534454C138.09726 80.534454 138.09726 80.534454 138.09726 80.534454Z" fill-rule="nonzero"/><path fill="#4285f4" clip-path="url(#id_0)" d="M143.45596 83.13411C143.45596 83.13411 143.45596 83.13411 143.45596 83.13411C143.45596 83.13411 143.45596 83.13411 143.45596 83.13411C143.45596 83.13411 143.45596 83.13411 143.45596 83.13411C143.45596 83.13411 143.45596 83.13411 143.45596 83.13411Z" fill-rule="nonzero"/><path fill="#4285f4" clip-path="url(#id_0)" d="M148.81468 86.08834C148.81468 86.08834 148.81468 86.08834 148.81468 86.08834C148.81468 86.08834 148.81468 86.08834 148.81468 86.08834C148.81468 86.08834 148.81468 86.08834 148.81468 86.08834C148.81468 86.08834 148.81468 86.08834 148.81468 86.08834Z" fill-rule="nonzero"/><path fill="#4285f4" clip-path="url(#id_0)" d="M154.1734 89.46674C154.1734 89.46674 154.1734 89.46674 154.1734 89.46674C154.1734 89.46674 154.1734 89.46674 154.1734 89.46674C154.1734 89.46674 154.1734 89.46674 154.1734 89.46674C154.1734 89.46674 154.1734 89.46674 154.1734 89.46674Z" fill-rule="nonzero"/><path fill="#4285f4" clip-path="url(#id_0)" d="M159.53212 93.33889C159.53212 93.33889 159.53212 93.33889 159.53212 93.33889C159.53212 93.33889 159.53212 93.33889 159.53212 93.33889C159.53212 93.33889 159.53212 93.33889 159.53212 93.33889C159.53212 93.33889 159.53212 93.33889 159.53212 93.33889Z" fill-rule="nonzero"/><path fill="#4285f4" clip-path="url(#id_0)" d="M164.89082 100.03375C164.89082 100.03375 164.89082 100.03375 164.89082 100.03375C164.89082 100.03375 164.89082 100.03375 164.89082 100.03375C164.89082 100.03375 164.89082 100.03375 164.89082 100.03375C164.89082 100.03375 164.89082 100.03375 164.89082 100.03375Z" fill-rule="nonzero"/><path fill="#4285f4" clip-path="url(#id_0)" d="M170.24954 111.0676C170.24954 111.0676 170.24954 111.0676 170.24954 111.0676C170.24954 111.0676 170.24954 111.0676 170.24954 111.0676C170.24954 111.0676 170.24954 111.0676 170.24954 111.0676C170.24954 111.0676 170.24954 111.0676 170.24954 111.0676Z" fill-rule="nonzero"/><path fill="#4285f4" clip-path="url(#id_0)" d="M175.60826 125.290955C175.60826 125.290955 175.60826 125.290955 175.60826 125.290955C175.60826 125.290955 175.60826 125.290955 175.60826 125.290955C175.60826 125.290955 175.60826 125.290955 175.60826 125.290955C175.60826 125.290955 175.60826 125.290955 175.60826 125.290955Z" fill-rule="nonzero"/><path fill="#4285f4" clip-path="url(#id_0)" d="M180.96698 141.55435C180.96698 141.55435 180.96698 141.55435 180.96698 141.55435C180.96698 141.55435 180.96698 141.55435 180.96698 141.55435C180.96698 141.55435 180.96698 141.55435 180.96698 141.55435C180.96698 141.55435 180.96698 141.55435 180.96698 141.55435Z" fill-rule="nonzero"/><path fill="#4285f4" clip-path="url(#id_0)" d="M186.3257 158.70833C186.3257 158.70833 186.3257 158.70833 186.3257 158.70833C186.3257 158.70833 186.3257 158.70833 186.3257 158.70833C186.3257 158.70833 186.3257 158.70833 186.3257 158.70833C186.3257 158.70833 186.3257 158.70833 186.3257 158.70833Z" fill-rule="nonzero"/><path fill="#4285f4" clip-path="url(#id_0)" d="M191.6844 175.60342C191.6844 175.60342 191.6844 175.60342 191.6844 175.60342C191.6844 175.60342 191.6844 175.60342 191.6844 175.60342C191.6844 175.60342 191.6844 175.60342 191.6844 175.60342C191.6844 175.60342 191.6844 175.60342 191.6844 175.60342Z" fill-rule="nonzero"/><path fill="#4285f4" clip-path="url(#id_0)" d="M197.04312 191.09015C197.04312 191.09015 197.04312 191.09015 197.04312 191.09015C197.04312 191.09015 197.04312 191.09015 197.04312 191.09015C197.04312 191.09015 197.04312 191.09015 197.04312 191.09015C197.04312 191.09015 197.04312 191.09015 197.04312 191.09015Z" fill-rule="nonzero"/><path fill="#4285f4" clip-path="url(#id_0)" d="M202.40184 204.01907C202.40184 204.01907 202.40184 204.01907 202.40184 204.01907C202.40184 204.01907 202.40184 204.01907 202.40184 204.01907C202.40184 204.01907 202.40184 204.01907 202.40184 204.01907C202.40184 204.01907 202.40184 204.01907 202.40184 204.01907Z" fill-rule="nonzero"/><path fill="#4285f4" clip-path="url(#id_0)" d="M207.76056 213.24069C207.76056 213.24069 207.76056 213.24069 207.76056 213.24069C207.76056 213.24069 207.76056 213.24069 207.76056 213.24069C207.76056 213.24069 207.76056 213.24069 207.76056 213.24069C207.76056 213.24069 207.76056 213.24069 207.76056 213.24069Z" fill-rule="nonzero"/><path fill="#4285f4" clip-path="url(#id_0)" d="M213.11926 217.60556C213.11926 217.60556 213.11926 217.60556 213.11926 217.60556C213.11926 217.60556 213.11926 217.60556 213.11926 217.60556C213.11926 217.60556 213.11926 217.60556 213.11926 217.60556C213.11926 217.60556 213.11926 217.60556 213.11926 217.60556Z" fill-rule="nonzero"/><path fill="#4285f4" clip-path="url(#id_0)" d="M218.47798 219.02116C218.47798 219.02116 218.47798 219.02116 218.47798 219.02116C218.47798 219.02116 218.47798 219.02116 218.47798 219.02116C218.47798 219.02116 218.47798 219.02116 218.47798 219.02116C218.47798 219.02116 218.47798 219.02116 218.47798 219.02116Z" fill-rule="nonzero"/><path fill="#4285f4" clip-path="url(#id_0)" d="M223.8367 220.1903C223.8367 220.1903 223.8367 220.1903 223.8367 220.1903C223.8367 220.1903 223.8367 220.1903 223.8367 220.1903C223.8367 220.1903 223.8367 220.1903 223.8367 220.1903C223.8367 220.1903 223.8367 220.1903 223.8367 220.1903Z" fill-rule="nonzero"/><path fill="#4285f4" clip-path="url(#id_0)" d="M229.19542 221.15648C229.19542 221.15648 229.19542 221.15648 229.19542 221.15648C229.19542 221.15648 229.19542 221.15648 229.19542 221.15648C229.19542 221.15648 229.19542 221.15648 229.19542 221.15648C229.19542 221.15648 229.19542 221.15648 229.19542 221.15648Z" fill-rule="nonzero"/><path fill="#4285f4" clip-path="url(#id_0)" d="M234.55412 221.96318C234.55412 221.96318 234.55412 221.96318 234.55412 221.96318C234.55412 221.96318 234.55412 221.96318 234.55412 221.96318C234.55412 221.96318 234.55412 221.96318 234.55412 221.96318C234.55412 221.96318 234.55412 221.96318 234.55412 221.96318Z" fill-rule="nonzero"/><path fill="#4285f4" clip-path="url(#id_0)" d="M239.91284 222.65388C239.91284 222.65388 239.91284 222.65388 239.91284 222.65388C239.91284 222.65388 239.91284 222.65388 239.91284 222.65388C239.91284 222.65388 239.91284 222.65388 239.91284 222.65388C239.91284 222.65388 239.91284 222.65388 239.91284 222.65388Z" fill-rule="nonzero"/><path fill="#4285f4" clip-path="url(#id_0)" d="M245.27156 223.27211C245.27156 223.27211 245.27156 223.27211 245.27156 223.27211C245.27156 223.27211 245.27156 223.27211 245.27156 223.27211C245.27156 223.27211 245.27156 223.27211 245.27156 223.27211C245.27156 223.27211 245.27156 223.27211 245.27156 223.27211Z" fill-rule="nonzero"/><path fill="#4285f4" clip-path="url(#id_0)" d="M250.63028 223.86134C250.63028 223.86134 250.63028 223.86134 250.63028 223.86134C250.63028 223.86134 250.63028 223.86134 250.63028 223.86134C250.63028 223.86134 250.63028 223.86134 250.63028 223.86134C250.63028 223.86134 250.63028 223.86134 250.63028 223.86134Z" fill-rule="nonzero"/><path fill="#4285f4" clip-path="url(#id_0)" d="M255.989 224.46507C255.989 224.46507 255.989 224.46507 255.989 224.46507C255.989 224.46507 255.989 224.46507 255.989 224.46507C255.989 224.46507 255.989 224.46507 255.989 224.46507C255.989 224.46507 255.989 224.46507 255.989 224.46507Z" fill-rule="nonzero"/><path fill="#4285f4" clip-path="url(#id_0)" d="M261.34772 225.1268C261.34772 225.1268 261.34772 225.1268 261.34772 225.1268C261.34772 225.1268 261.34772 225.1268 261.34772 225.1268C261.34772 225.1268 261.34772 225.1268 261.34772 225.1268C261.34772 225.1268 261.34772 225.1268 261.34772 225.1268Z" fill-rule="nonzero"/><path fill="#4285f4" clip-path="url(#id_0)" d="M266.70642 225.89C266.70642 225.89 266.70642 225.89 266.70642 225.89C266.70642 225.89 266.70642 225.89 266.70642 225.89C266.70642 225.89 266.70642 225.89 266.70642 225.89C266.70642 225.89 266.70642 225.89 266.70642 225.89Z" fill-rule="nonzero"/><path fill="#4285f4" clip-path="url(#id_0)" d="M272.06512 226.68117C272.06512 226.68117 272.06512 226.68117 272.06512 226.68117C272.06512 226.68117 272.06512 226.68117 272.06512 226.68117C272.06512 226.68117 272.06512 226.68117 272.06512 226.68117C272.06512 226.68117 272.06512 226.68117 272.06512 226.68117Z" fill-rule="nonzero"/><path fill="#4285f4" clip-path="url(#id_0)" d="M277.42386 227.41434C277.42386 227.41434 277.42386 227.41434 277.42386 227.41434C277.42386 227.41434 277.42386 227.41434 277.42386 227.41434C277.42386 227.41434 277.42386 227.41434 277.42386 227.41434C277.42386 227.41434 277.42386 227.41434 277.42386 227.41434Z" fill-rule="nonzero"/><path fill="#4285f4" clip-path="url(#id_0)" d="M282.78256 228.11438C282.78256 228.11438 282.78256 228.11438 282.78256 228.11438C282.78256 228.11438 282.78256 228.11438 282.78256 228.11438C282.78256 228.11438 282.78256 228.11438 282.78256 228.11438C282.78256 228.11438 282.78256 228.11438 282.78256 228.11438Z" fill-rule="nonzero"/><path fill="#4285f4" clip-path="url(#id_0)" d="M288.1413 228.80612C288.1413 228.80612 288.1413 228.80612 288.1413 228.80612C288.1413 228.80612 288.1413 228.80612 288.1413 228.80612C288.1413 228.80612 288.1413 228.80612 288.1413 228.80612C288.1413 228.80612 288.1413 228.80612 288.1413 228.80612Z" fill-rule="nonzero"/><path fill="#4285f4" clip-path="url(#id_0)" d="M293.5 229.51445C293.5 229.51445 293.5 229.51445 293.5 229.51445C293.5 229.51445 293.5 229.51445 293.5 229.51445C293.5 229.51445 293.5 229.51445 293.5 229.51445C293.5 229.51445 293.5 229.51445 293.5 229.51445Z" fill-rule="nonzero"/><path fill="#4285f4" clip-path="url(#id_0)" d="M298.8587 230.26419C298.8587 230.26419 298.8587 230.26419 298.8587 230.26419C298.8587 230.26419 298.8587 230.26419 298.8587 230.26419C298.8587 230.26419 298.8587 230.26419 298.8587 230.26419C298.8587 230.26419 298.8587 230.26419 298.8587 230.26419Z" fill-rule="nonzero"/><path fill="#4285f4" clip-path="url(#id_0)" d="M304.21744 231.0802C304.21744 231.0802 304.21744 231.0802 304.21744 231.0802C304.21744 231.0802 304.21744 231.0802 304.21744 231.0802C304.21744 231.0802 304.21744 231.0802 304.21744 231.0802C304.21744 231.0802 304.21744 231.0802 304.21744 231.0802Z" fill-rule="nonzero"/><path fill="#4285f4" clip-path="url(#id_0)" d="M309.57614 231.98735C309.57614 231.98735 309.57614 231.98735 309.57614 231.98735C309.57614 231.98735 309.57614 231.98735 309.57614 231.98735C309.57614 231.98735 309.57614 231.98735 309.57614 231.98735C309.57614 231.98735 309.57614 231.98735 309.57614 231.98735Z" fill-rule="nonzero"/><path fill="#4285f4" clip-path="url(#id_0)" d="M314.93488 233.01048C314.93488 233.01048 314.93488 233.01048 314.93488 233.01048C314.93488 233.01048 314.93488 233.01048 314.93488 233.01048C314.93488 233.01048 314.93488 233.01048 314.93488 233.01048C314.93488 233.01048 314.93488 233.01048 314.93488 233.01048Z" fill-rule="nonzero"/><path fill="#4285f4" clip-path="url(#id_0)" d="M320.29358 234.17444C320.29358 234.17444 320.29358 234.17444 320.29358 234.17444C320.29358 234.17444 320.29358 234.17444 320.29358 234.17444C320.29358 234.17444 320.29358 234.17444 320.29358 234.17444C320.29358 234.17444 320.29358 234.17444 320.29358 234.17444Z" fill-rule="nonzero"/><path fill="#4285f4" clip-path="url(#id_0)" d="M325.65228 235.65321C325.65228 235.65321 325.65228 235.65321 325.65228 235.65321C325.65228 235.65321 325.65228 235.65321 325.65228 235.65321C325.65228 235.65321 325.65228 235.65321 325.65228 235.65321C325.65228 235.65321 325.65228 235.65321 325.65228 235.65321Z" fill-rule="nonzero"/><path fill="#4285f4" clip-path="url(#id_0)" d="M331.01102 237.5545C331.01102 237.5545 331.01102 237.5545 331.01102 237.5545C331.01102 237.5545 331.01102 237.5545 331.01102 237.5545C331.01102 237.5545 331.01102 237.5545 331.01102 237.5545C331.01102 237.5545 331.01102 237.5545 331.01102 237.5545Z" fill-rule="nonzero"/><path fill="#4285f4" clip-path="url(#id_0)" d="M336.36972 239.80373C336.36972 239.80373 336.36972 239.80373 336.36972 239.80373C336.36972 239.80373 336.36972 239.80373 336.36972 239.80373C336.36972 239.80373 336.36972 239.80373 336.36972 239.80373C336.36972 239.80373 336.36972 239.80373 336.36972 239.80373Z" fill-rule="nonzero"/><path fill="#4285f4" clip-path="url(#id_0)" d="M341.72842 242.32634C341.72842 242.32634 341.72842 242.32634 341.72842 242.32634C341.72842 242.32634 341.72842 242.32634 341.72842 242.32634C341.72842 242.32634 341.72842 242.32634 341.72842 242.32634C341.72842 242.32634 341.72842 242.32634 341.72842 242.32634Z" fill-rule="nonzero"/><path fill="#4285f4" clip-path="url(#id_0)" d="M347.08716 245.04778C347.08716 245.04778 347.08716 245.04778 347.08716 245.04778C347.08716 245.04778 347.08716 245.04778 347.08716 245.04778C347.08716 245.04778 347.08716 245.04778 347.08716 245.04778C347.08716 245.04778 347.08716 245.04778 347.08716 245.04778Z" fill-rule="nonzero"/><path fill="#4285f4" clip-path="url(#id_0)" d="M352.44586 247.89348C352.44586 247.89348 352.44586 247.89348 352.44586 247.89348C352.44586 247.89348 352.44586 247.89348 352.44586 247.89348C352.44586 247.89348 352.44586 247.89348 352.44586 247.89348C352.44586 247.89348 352.44586 247.89348 352.44586 247.89348Z" fill-rule="nonzero"/><path fill="#4285f4" clip-path="url(#id_0)" d="M357.8046 250.7889C357.8046 250.7889 357.8046 250.7889 357.8046 250.7889C357.8046 250.7889 357.8046 250.7889 357.8046 250.7889C357.8046 250.7889 357.8046 250.7889 357.8046 250.7889C357.8046 250.7889 357.8046 250.7889 357.8046 250.7889Z" fill-rule="nonzero"/><path fill="#4285f4" clip-path="url(#id_0)" d="M363.1633 253.65945C363.1633 253.65945 363.1633 253.65945 363.1633 253.65945C363.1633 253.65945 363.1633 253.65945 363.1633 253.65945C363.1633 253.65945 363.1633 253.65945 363.1633 253.65945C363.1633 253.65945 363.1633 253.65945 363.1633 253.65945Z" fill-rule="nonzero"/><path fill="#4285f4" clip-path="url(#id_0)" d="M368.522 256.4306C368.522 256.4306 368.522 256.4306 368.522 256.4306C368.522 256.4306 368.522 256.4306 368.522 256.4306C368.522 256.4306 368.522 256.4306 368.522 256.4306C368.522 256.4306 368.522 256.4306 368.522 256.4306Z" fill-rule="nonzero"/><path fill="#4285f4" clip-path="url(#id_0)" d="M373.88074 259.02777C373.88074 259.02777 373.88074 259.02777 373.88074 259.02777C373.88074 259.02777 373.88074 259.02777 373.88074 259.02777C373.88074 259.02777 373.88074 259.02777 373.88074 259.02777C373.88074 259.02777 373.88074 259.02777 373.88074 259.02777Z" fill-rule="nonzero"/><path fill="#4285f4" clip-path="url(#id_0)" d="M379.23944 261.62494C379.23944 261.62494 379.23944 261.62494 379.23944 261.62494C379.23944 261.62494 379.23944 261.62494 379.23944 261.62494C379.23944 261.62494 379.23944 261.62494 379.23944 261.62494C379.23944 261.62494 379.23944 261.62494 379.23944 261.62494Z" fill-rule="nonzero"/><path fill="#4285f4" clip-path="url(#id_0)" d="M384.59818 264.3961C384.59818 264.3961 384.59818 264.3961 384.59818 264.3961C384.59818 264.3961 384.59818 264.3961 384.59818 264.3961C384.59818 264.3961 384.59818 264.3961 384.59818 264.3961C384.59818 264.3961 384.59818 264.3961 384.59818 264.3961Z" fill-rule="nonzero"/><path fill="#4285f4" clip-path="url(#id_0)" d="M389.95688 267.26666C389.95688 267.26666 389.95688 267.26666 389.95688 267.26666C389.95688 267.26666 389.95688 267.26666 389.95688 267.26666C389.95688 267.26666 389.95688 267.26666 389.95688 267.26666C389.95688 267.26666 389.95688 267.26666 389.95688 267.26666Z" fill-rule="nonzero"/><path fill="#4285f4" clip-path="url(#id_0)" d="M395.31558 270.16208C395.31558 270.16208 395.31558 270.16208 395.31558 270.16208C395.31558 270.16208 395.31558 270.16208 395.31558 270.16208C395.31558 270.16208 395.31558 270.16208 395.31558 270.16208C395.31558 270.16208 395.31558 270.16208 395.31558 270.16208Z" fill-rule="nonzero"/><path fill="#4285f4" clip-path="url(#id_0)" d="M400.67432 273.00778C400.67432 273.00778 400.67432 273.00778 400.67432 273.00778C400.67432 273.00778 400.67432 273.00778 400.67432 273.00778C400.67432 273.00778 400.67432 273.00778 400.67432 273.00778C400.67432 273.00778 400.67432 273.00778 400.67432 273.00778Z" fill-rule="nonzero"/><path fill="#4285f4" clip-path="url(#id_0)" d="M406.03302 275.72922C406.03302 275.72922 406.03302 275.72922 406.03302 275.72922C406.03302 275.72922 406.03302 275.72922 406.03302 275.72922C406.03302 275.72922 406.03302 275.72922 406.03302 275.72922C406.03302 275.72922 406.03302 275.72922 406.03302 275.72922Z" fill-rule="nonzero"/><path fill="#4285f4" clip-path="url(#id_0)" d="M411.39175 278.25183C411.39175 278.25183 411.39175 278.25183 411.39175 278.25183C411.39175 278.25183 411.39175 278.25183 411.39175 278.25183C411.39175 278.25183 411.39175 278.25183 411.39175 278.25183C411.39175 278.25183 411.39175 278.25183 411.39175 278.25183Z" fill-rule="nonzero"/><path fill="#4285f4" clip-path="url(#id_0)" d="M416.75046 280.50107C416.75046 280.50107 416.75046 280.50107 416.75046 280.50107C416.75046 280.50107 416.75046 280.50107 416.75046 280.50107C416.75046 280.50107 416.75046 280.50107 416.75046 280.50107C416.75046 280.50107 416.75046 280.50107 416.75046 280.50107Z" fill-rule="nonzero"/><path fill="#4285f4" clip-path="url(#id_0)" d="M422.10916 282.40234C422.10916 282.40234 422.10916 282.40234 422.10916 282.40234C422.10916 282.40234 422.10916 282.40234 422.10916 282.40234C422.10916 282.40234 422.10916 282.40234 422.10916 282.40234C422.10916 282.40234 422.10916 282.40234 422.10916 282.40234Z" fill-rule="nonzero"/><path fill="#4285f4" clip-path="url(#id_0)" d="M427.4679 283.8811C427.4679 283.8811 427.4679 283.8811 427.4679 283.8811C427.4679 283.8811 427.4679 283.8811 427.4679 283.8811C427.4679 283.8811 427.4679 283.8811 427.4679 283.8811C427.4679 283.8811 427.4679 283.8811 427.4679 283.8811Z" fill-rule="nonzero"/><path fill="#4285f4" clip-path="url(#id_0)" d="M432.8266 285.0948C432.8266 285.0948 432.8266 285.0948 432.8266 285.0948C432.8266 285.0948 432.8266 285.0948 432.8266 285.0948C432.8266 285.0948 432.8266 285.0948 432.8266 285.0948C432.8266 285.0948 432.8266 285.0948 432.8266 285.0948Z" fill-rule="nonzero"/><path fill="#4285f4" clip-path="url(#id_0)" d="M438.1853 286.24493C438.1853 286.24493 438.1853 286.24493 438.1853 286.24493C438.1853 286.24493 438.1853 286.24493 438.1853 286.24493C438.1853 286.24493 438.1853 286.24493 438.1853 286.24493C438.1853 286.24493 438.1853 286.24493 438.1853 286.24493Z" fill-rule="nonzero"/><path fill="#4285f4" clip-path="url(#id_0)" d="M443.54404 287.3233C443.54404 287.3233 443.54404 287.3233 443.54404 287.3233C443.54404 287.3233 443.54404 287.3233 443.54404 287.3233C443.54404 287.3233 443.54404 287.3233 443.54404 287.3233C443.54404 287.3233 443.54404 287.3233 443.54404 287.3233Z" fill-rule="nonzero"/><path fill="#4285f4" clip-path="url(#id_0)" d="M448.90274 288.32156C448.90274 288.32156 448.90274 288.32156 448.90274 288.32156C448.90274 288.32156 448.90274 288.32156 448.90274 288.32156C448.90274 288.32156 448.90274 288.32156 448.90274 288.32156C448.90274 288.32156 448.90274 288.32156 448.90274 288.32156Z" fill-rule="nonzero"/><path fill="#4285f4" clip-path="url(#id_0)" d="M454.26147 289.23148C454.26147 289.23148 454.26147 289.23148 454.26147 289.23148C454.26147 289.23148 454.26147 289.23148 454.26147 289.23148C454.26147 289.23148 454.26147 289.23148 454.26147 289.23148C454.26147 289.23148 454.26147 289.23148 454.26147 289.23148Z" fill-rule="nonzero"/><path fill="#4285f4" clip-path="url(#id_0)" d="M459.62018 290.04474C459.62018 290.04474 459.62018 290.04474 459.62018 290.04474C459.62018 290.04474 459.62018 290.04474 459.62018 290.04474C459.62018 290.04474 459.62018 290.04474 459.62018 290.04474C459.62018 290.04474 459.62018 290.04474 459.62018 290.04474Z" fill-rule="nonzero"/><path fill="#4285f4" clip-path="url(#id_0)" d="M464.97888 290.75305C464.97888 290.75305 464.97888 290.75305 464.97888 290.75305C464.97888 290.75305 464.97888 290.75305 464.97888 290.75305C464.97888 290.75305 464.97888 290.75305 464.97888 290.75305C464.97888 290.75305 464.97888 290.75305 464.97888 290.75305Z" fill-rule="nonzero"/><path fill="#4285f4" clip-path="url(#id_0)" d="M470.33762 291.34814C470.33762 291.34814 470.33762 291.34814 470.33762 291.34814C470.33762 291.34814 470.33762 291.34814 470.33762 291.34814C470.33762 291.34814 470.33762 291.34814 470.33762 291.34814C470.33762 291.34814 470.33762 291.34814 470.33762 291.34814Z" fill-rule="nonzero"/><path fill="#4285f4" clip-path="url(#id_0)" d="M475.69632 291.82175C475.69632 291.82175 475.69632 291.82175 475.69632 291.82175C475.69632 291.82175 475.69632 291.82175 475.69632 291.82175C475.69632 291.82175 475.69632 291.82175 475.69632 291.82175C475.69632 291.82175 475.69632 291.82175 475.69632 291.82175Z" fill-rule="nonzero"/><path fill="#4285f4" clip-path="url(#id_0)" d="M481.05505 292.16556C481.05505 292.16556 481.05505 292.16556 481.05505 292.16556C481.05505 292.16556 481.05505 292.16556 481.05505 292.16556C481.05505 292.16556 481.05505 292.16556 481.05505 292.16556C481.05505 292.16556 481.05505 292.16556 481.05505 292.16556Z" fill-rule="nonzero"/><path fill="#4285f4" clip-path="url(#id_0)" d="M486.41376 292.42072C486.41376 292.42072 486.41376 292.42072 486.41376 292.42072C486.41376 292.42072 486.41376 292.42072 486.41376 292.42072C486.41376 292.42072 486.41376 292.42072 486.41376 292.42072C486.41376 292.42072 486.41376 292.42072 486.41376 292.42072Z" fill-rule="nonzero"/><path fill="#4285f4" clip-path="url(#id_0)" d="M491.77246 292.63834C491.77246 292.63834 491.77246 292.63834 491.77246 292.63834C491.77246 292.63834 491.77246 292.63834 491.77246 292.63834C491.77246 292.63834 491.77246 292.63834 491.77246 292.63834C491.77246 292.63834 491.77246 292.63834 491.77246 292.63834Z" fill-rule="nonzero"/><path fill="#4285f4" clip-path="url(#id_0)" d="M497.1312 292.825C497.1312 292.825 497.1312 292.825 497.1312 292.825C497.1312 292.825 497.1312 292.825 497.1312 292.825C497.1312 292.825 497.1312 292.825 497.1312 292.825C497.1312 292.825 497.1312 292.825 497.1312 292.825Z" fill-rule="nonzero"/><path fill="#4285f4" clip-path="url(#id_0)" d="M502.4899 292.98737C502.4899 292.98737 502.4899 292.98737 502.4899 292.98737C502.4899 292.98737 502.4899 292.98737 502.4899 292.98737C502.4899 292.98737 502.4899 292.98737 502.4899 292.98737C502.4899 292.98737 502.4899 292.98737 502.4899 292.98737Z" fill-rule="nonzero"/><path fill="#4285f4" clip-path="url(#id_0)" d="M507.8486 293.13208C507.8486 293.13208 507.8486 293.13208 507.8486 293.13208C507.8486 293.13208 507.8486 293.13208 507.8486 293.13208C507.8486 293.13208 507.8486 293.13208 507.8486 293.13208C507.8486 293.13208 507.8486 293.13208 507.8486 293.13208Z" fill-rule="nonzero"/><path fill="#4285f4" clip-path="url(#id_0)" d="M513.20734 293.26572C513.20734 293.26572 513.20734 293.26572 513.20734 293.26572C513.20734 293.26572 513.20734 293.26572 513.20734 293.26572C513.20734 293.26572 513.20734 293.26572 513.20734 293.26572C513.20734 293.26572 513.20734 293.26572 513.20734 293.26572Z" fill-rule="nonzero"/><path fill="#4285f4" clip-path="url(#id_0)" d="M518.56604 293.39496C518.56604 293.39496 518.56604 293.39496 518.56604 293.39496C518.56604 293.39496 518.56604 293.39496 518.56604 293.39496C518.56604 293.39496 518.56604 293.39496 518.56604 293.39496C518.56604 293.39496 518.56604 293.39496 518.56604 293.39496Z" fill-rule="nonzero"/><path fill="#4285f4" clip-path="url(#id_0)" d="M523.92474 293.52643C523.92474 293.52643 523.92474 293.52643 523.92474 293.52643C523.92474 293.52643 523.92474 293.52643 523.92474 293.52643C523.92474 293.52643 523.92474 293.52643 523.92474 293.52643C523.92474 293.52643 523.92474 293.52643 523.92474 293.52643Z" fill-rule="nonzero"/><path fill="#4285f4" clip-path="url(#id_0)" d="M529.2835 293.6667C529.2835 293.6667 529.2835 293.6667 529.2835 293.6667C529.2835 293.6667 529.2835 293.6667 529.2835 293.6667C529.2835 293.6667 529.2835 293.6667 529.2835 293.6667C529.2835 293.6667 529.2835 293.6667 529.2835 293.6667Z" fill-rule="nonzero"/><path fill="#4285f4" clip-path="url(#id_0)" d="M534.6422 293.82245C534.6422 293.82245 534.6422 293.82245 534.6422 293.82245C534.6422 293.82245 534.6422 293.82245 534.6422 293.82245C534.6422 293.82245 534.6422 293.82245 534.6422 293.82245C534.6422 293.82245 534.6422 293.82245 534.6422 293.82245Z" fill-rule="nonzero"/><path fill="#000000" d="M291.09375 349.45L293.35938 346.21564L291.26562 343.23126L292.57812 343.23126L293.53125 344.6844Q293.79688 345.10626 293.96875 345.3875Q294.21875 344.9969 294.4375 344.7L295.48438 343.23126L296.75 343.23126L294.59375 346.15314L296.90625 349.45L295.625 349.45L294.34375 347.5125L294.0 346.9969L292.35938 349.45L291.09375 349.45Z" fill-rule="nonzero"/><path fill="#000000" d="M33.05 300.21564Q33.05 298.6844 33.3625 297.7625Q33.675 296.825 34.284374 296.325Q34.909374 295.825 35.846874 295.825Q36.534374 295.825 37.05 296.10626Q37.58125 296.3875 37.925 296.91876Q38.26875 297.4344 38.45625 298.1844Q38.64375 298.9344 38.64375 300.21564Q38.64375 301.73126 38.33125 302.65314Q38.034374 303.575 37.409374 304.09064Q36.8 304.59064 35.846874 304.59064Q34.6125 304.59064 33.89375 303.7Q33.05 302.6375 33.05 300.21564ZM34.128124 300.21564Q34.128124 302.325 34.628124 303.02814Q35.128124 303.73126 35.846874 303.73126Q36.58125 303.73126 37.065624 303.02814Q37.565624 302.325 37.565624 300.21564Q37.565624 298.09064 37.065624 297.40314Q36.58125 296.7 35.83125 296.7Q35.1125 296.7 34.675 297.3094Q34.128124 298.09064 34.128124 300.21564Z" fill-rule="nonzero"/><path fill="#000000" d="M37.01875 221.60556L35.971874 221.60556L35.971874 214.88681Q35.58125 215.24619 34.95625 215.62119Q34.346874 215.98056 33.8625 216.15244L33.8625 215.13681Q34.7375 214.71494 35.39375 214.13681Q36.065624 213.54306 36.346874 212.98056L37.01875 212.98056L37.01875 221.60556Z" fill-rule="nonzero"/><path fill="#000000" d="M38.596874 137.74548L38.596874 138.76111L32.909374 138.76111Q32.909374 138.38611 33.034374 138.02673Q33.253124 137.44861 33.721874 136.88611Q34.20625 136.32361 35.1125 135.58923Q36.51875 134.43298 37.003124 133.76111Q37.503124 133.08923 37.503124 132.49548Q37.503124 131.87048 37.05 131.44861Q36.596874 131.01111 35.878124 131.01111Q35.1125 131.01111 34.659374 131.46423Q34.20625 131.91736 34.190624 132.72986L33.1125 132.62048Q33.221874 131.40173 33.940624 130.77673Q34.675 130.13611 35.909374 130.13611Q37.14375 130.13611 37.8625 130.82361Q38.58125 131.51111 38.58125 132.52673Q38.58125 133.04236 38.3625 133.54236Q38.159374 134.02673 37.659374 134.58923Q37.175 135.13611 36.05 136.08923Q35.096874 136.88611 34.815624 137.18298Q34.55 137.46423 34.378124 137.74548L38.596874 137.74548Z" fill-rule="nonzero"/><path fill="#000000" d="M33.05 53.651043L34.1125 53.510418Q34.284374 54.401043 34.721874 54.807293Q35.159374 55.197918 35.784374 55.197918Q36.534374 55.197918 37.05 54.682293Q37.565624 54.166668 37.565624 53.401043Q37.565624 52.682293 37.08125 52.213543Q36.6125 51.729168 35.878124 51.729168Q35.58125 51.729168 35.128124 51.854168L35.253124 50.916668Q35.3625 50.932293 35.425 50.932293Q36.096874 50.932293 36.628124 50.588543Q37.175 50.229168 37.175 49.494793Q37.175 48.916668 36.784374 48.541668Q36.39375 48.151043 35.76875 48.151043Q35.159374 48.151043 34.7375 48.541668Q34.33125 48.932293 34.221874 49.697918L33.159374 49.510418Q33.346874 48.463543 34.034374 47.885418Q34.721874 47.291668 35.7375 47.291668Q36.440624 47.291668 37.034374 47.604168Q37.628124 47.901043 37.940624 48.416668Q38.253124 48.932293 38.253124 49.526043Q38.253124 50.072918 37.95625 50.541668Q37.659374 50.994793 37.08125 51.260418Q37.83125 51.432293 38.253124 51.994793Q38.675 52.541668 38.675 53.385418Q38.675 54.510418 37.846874 55.291668Q37.034374 56.072918 35.784374 56.072918Q34.659374 56.072918 33.909374 55.401043Q33.159374 54.713543 33.05 53.651043Z" fill-rule="nonzero"/><path fill="#000000" d="M49.357807 313.21564Q49.357807 311.6844 49.670307 310.7625Q49.982807 309.825 50.592182 309.325Q51.217182 308.825 52.154682 308.825Q52.842182 308.825 53.357807 309.10626Q53.889057 309.3875 54.232807 309.91876Q54.576557 310.4344 54.764057 311.1844Q54.951557 311.9344 54.951557 313.21564Q54.951557 314.73126 54.639057 315.65314Q54.342182 316.575 53.717182 317.09064Q53.107807 317.59064 52.154682 317.59064Q50.920307 317.59064 50.201557 316.7Q49.357807 315.6375 49.357807 313.21564ZM50.435932 313.21564Q50.435932 315.325 50.935932 316.02814Q51.435932 316.73126 52.154682 316.73126Q52.889057 316.73126 53.373432 316.02814Q53.873432 315.325 53.873432 313.21564Q53.873432 311.09064 53.373432 310.40314Q52.889057 309.7 52.139057 309.7Q51.420307 309.7 50.982807 310.3094Q50.435932 311.09064 50.435932 313.21564Z" fill-rule="nonzero"/><path fill="#000000" d="M106.91371 317.45L105.86684 317.45L105.86684 310.73126Q105.47621 311.09064 104.85121 311.46564Q104.24184 311.825 103.75746 311.9969L103.75746 310.98126Q104.63246 310.5594 105.28871 309.98126Q105.96059 309.3875 106.24184 308.825L106.91371 308.825L106.91371 317.45Z" fill-rule="nonzero"/><path fill="#000000" d="M162.079 316.4344L162.079 317.45L156.3915 317.45Q156.3915 317.075 156.5165 316.71564Q156.73524 316.1375 157.204 315.575Q157.68837 315.0125 158.59462 314.27814Q160.00087 313.1219 160.48524 312.45Q160.98524 311.77814 160.98524 311.1844Q160.98524 310.5594 160.53212 310.1375Q160.079 309.7 159.36024 309.7Q158.59462 309.7 158.1415 310.15314Q157.68837 310.60626 157.67274 311.41876L156.59462 311.3094Q156.704 310.09064 157.42274 309.46564Q158.15712 308.825 159.3915 308.825Q160.62587 308.825 161.34462 309.5125Q162.06337 310.2 162.06337 311.21564Q162.06337 311.73126 161.84462 312.23126Q161.6415 312.71564 161.1415 313.27814Q160.65712 313.825 159.53212 314.77814Q158.579 315.575 158.29774 315.8719Q158.03212 316.15314 157.86024 316.4344L162.079 316.4344Z" fill-rule="nonzero"/><path fill="#000000" d="M210.11926 315.1844L211.18176 315.04376Q211.35364 315.9344 211.79114 316.34064Q212.22864 316.73126 212.85364 316.73126Q213.60364 316.73126 214.11926 316.21564Q214.63489 315.7 214.63489 314.9344Q214.63489 314.21564 214.15051 313.7469Q213.68176 313.2625 212.94739 313.2625Q212.65051 313.2625 212.19739 313.3875L212.32239 312.45Q212.43176 312.46564 212.49426 312.46564Q213.16614 312.46564 213.69739 312.1219Q214.24426 311.7625 214.24426 311.02814Q214.24426 310.45 213.85364 310.075Q213.46301 309.6844 212.83801 309.6844Q212.22864 309.6844 211.80676 310.075Q211.40051 310.46564 211.29114 311.23126L210.22864 311.04376Q210.41614 309.9969 211.10364 309.41876Q211.79114 308.825 212.80676 308.825Q213.50989 308.825 214.10364 309.1375Q214.69739 309.4344 215.00989 309.95Q215.32239 310.46564 215.32239 311.0594Q215.32239 311.60626 215.02551 312.075Q214.72864 312.52814 214.15051 312.79376Q214.90051 312.96564 215.32239 313.52814Q215.74426 314.075 215.74426 314.91876Q215.74426 316.04376 214.91614 316.825Q214.10364 317.60626 212.85364 317.60626Q211.72864 317.60626 210.97864 316.9344Q210.22864 316.2469 210.11926 315.1844Z" fill-rule="nonzero"/><path fill="#000000" d="M267.08142 317.45L267.08142 315.3875L263.36267 315.3875L263.36267 314.41876L267.28455 308.85626L268.14392 308.85626L268.14392 314.41876L269.30017 314.41876L269.30017 315.3875L268.14392 315.3875L268.14392 317.45L267.08142 317.45ZM267.08142 314.41876L267.08142 310.5594L264.39392 314.41876L267.08142 314.41876Z" fill-rule="nonzero"/><path fill="#000000" d="M317.29358 315.2L318.40295 315.10626Q318.52795 315.91876 318.96545 316.325Q319.41858 316.73126 320.0592 316.73126Q320.8092 316.73126 321.34045 316.15314Q321.8717 315.575 321.8717 314.6375Q321.8717 313.73126 321.35608 313.21564Q320.85608 312.6844 320.02795 312.6844Q319.52795 312.6844 319.10608 312.91876Q318.69983 313.15314 318.46545 313.5125L317.48108 313.3875L318.3092 308.98126L322.59045 308.98126L322.59045 309.98126L319.15295 309.98126L318.69983 312.29376Q319.46545 311.7469 320.3092 311.7469Q321.4342 311.7469 322.19983 312.52814Q322.98108 313.3094 322.98108 314.54376Q322.98108 315.7 322.3092 316.5594Q321.48108 317.59064 320.0592 317.59064Q318.88733 317.59064 318.13733 316.9344Q317.40295 316.27814 317.29358 315.2Z" fill-rule="nonzero"/><path fill="#000000" d="M376.3495 310.96564L375.3026 311.04376Q375.162 310.41876 374.912 310.1375Q374.4745 309.6844 373.8495 309.6844Q373.3495 309.6844 372.95886 309.96564Q372.4745 310.34064 372.1776 311.04376Q371.89636 311.73126 371.88074 313.0125Q372.25574 312.4344 372.8026 312.15314Q373.3651 311.8719 373.9745 311.8719Q375.02136 311.8719 375.75574 312.65314Q376.50574 313.4344 376.50574 314.65314Q376.50574 315.46564 376.14636 316.16876Q375.8026 316.85626 375.19324 317.23126Q374.58386 317.59064 373.81824 317.59064Q372.4901 317.59064 371.662 316.6219Q370.83386 315.65314 370.83386 313.4344Q370.83386 310.9344 371.75574 309.8094Q372.5526 308.825 373.912 308.825Q374.9276 308.825 375.56824 309.40314Q376.2245 309.96564 376.3495 310.96564ZM372.0526 314.66876Q372.0526 315.21564 372.27136 315.71564Q372.50574 316.2 372.912 316.46564Q373.33386 316.73126 373.8026 316.73126Q374.45886 316.73126 374.94324 316.2Q375.4276 315.65314 375.4276 314.73126Q375.4276 313.84064 374.94324 313.325Q374.4745 312.8094 373.75574 312.8094Q373.037 312.8094 372.537 313.325Q372.0526 313.84064 372.0526 314.66876Z" fill-rule="nonzero"/><path fill="#000000" d="M424.5304 309.98126L424.5304 308.96564L430.0929 308.96564L430.0929 309.79376Q429.2804 310.66876 428.4679 312.1219Q427.67102 313.5594 427.23352 315.09064Q426.9054 316.16876 426.82727 317.45L425.73352 317.45Q425.74915 316.4344 426.12415 314.9969Q426.51477 313.5594 427.2179 312.23126Q427.93665 310.90314 428.74915 309.98126L424.5304 309.98126Z" fill-rule="nonzero"/><path fill="#000000" d="M479.68005 312.79376Q479.0238 312.54376 478.69568 312.10626Q478.38318 311.65314 478.38318 311.04376Q478.38318 310.10626 479.05505 309.46564Q479.74255 308.825 480.85193 308.825Q481.97693 308.825 482.66443 309.48126Q483.35193 310.1375 483.35193 311.075Q483.35193 311.66876 483.03943 312.10626Q482.72693 312.54376 482.0863 312.79376Q482.88318 313.04376 483.28943 313.6219Q483.69568 314.2 483.69568 314.9969Q483.69568 316.09064 482.91443 316.84064Q482.1488 317.59064 480.86755 317.59064Q479.60193 317.59064 478.82068 316.84064Q478.03943 316.09064 478.03943 314.96564Q478.03943 314.1219 478.4613 313.5594Q478.8988 312.9969 479.68005 312.79376ZM479.4613 310.9969Q479.4613 311.60626 479.85193 311.9969Q480.25818 312.3875 480.88318 312.3875Q481.49255 312.3875 481.88318 312.0125Q482.2738 311.6219 482.2738 311.0594Q482.2738 310.48126 481.86755 310.09064Q481.4613 309.6844 480.86755 309.6844Q480.25818 309.6844 479.85193 310.075Q479.4613 310.46564 479.4613 310.9969ZM479.13318 314.96564Q479.13318 315.41876 479.3363 315.84064Q479.55505 316.2625 479.97693 316.4969Q480.3988 316.73126 480.88318 316.73126Q481.63318 316.73126 482.11755 316.2469Q482.61755 315.7625 482.61755 315.0125Q482.61755 314.2469 482.11755 313.7469Q481.61755 313.2469 480.85193 313.2469Q480.10193 313.2469 479.61755 313.7469Q479.13318 314.23126 479.13318 314.96564Z" fill-rule="nonzero"/><path fill="#000000" d="M531.79846 315.46564L532.8141 315.3719Q532.9391 316.09064 533.29846 316.41876Q533.67346 316.73126 534.23596 316.73126Q534.72034 316.73126 535.0797 316.5125Q535.4547 316.27814 535.6891 315.91876Q535.92346 315.54376 536.0797 314.91876Q536.23596 314.27814 536.23596 313.6219Q536.23596 313.54376 536.23596 313.40314Q535.92346 313.90314 535.3766 314.23126Q534.8297 314.54376 534.1891 314.54376Q533.11096 314.54376 532.3766 313.77814Q531.6422 312.9969 531.6422 311.73126Q531.6422 310.41876 532.40784 309.6219Q533.1891 308.825 534.34534 308.825Q535.17346 308.825 535.86096 309.27814Q536.5641 309.73126 536.92346 310.575Q537.28284 311.40314 537.28284 312.98126Q537.28284 314.6219 536.92346 315.60626Q536.5797 316.575 535.86096 317.09064Q535.15784 317.59064 534.22034 317.59064Q533.2047 317.59064 532.5641 317.04376Q531.92346 316.48126 531.79846 315.46564ZM536.11096 311.66876Q536.11096 310.7625 535.6266 310.23126Q535.15784 309.7 534.47034 309.7Q533.7672 309.7 533.23596 310.27814Q532.72034 310.84064 532.72034 311.7625Q532.72034 312.575 533.22034 313.09064Q533.72034 313.60626 534.4391 313.60626Q535.17346 313.60626 535.6422 313.09064Q536.11096 312.575 536.11096 311.66876Z" fill-rule="nonzero"/><path fill="#fbbc04" d="M161.5 25.55C161.5 28.863708 158.8137 31.55 155.5 31.55C152.1863 31.55 149.5 28.863708 149.5 25.55C149.5 22.236292 152.1863 19.55 155.5 19.55C158.8137 19.55 161.5 22.236292 161.5 25.55Z" fill-rule="nonzero"/><path fill="#1a1a1a" d="M170.42188 29.55L170.42188 20.95625L173.67188 20.95625Q174.51562 20.95625 174.96875 21.034374Q175.60938 21.14375 176.03125 21.440624Q176.46875 21.7375 176.71875 22.26875Q176.98438 22.8 176.98438 23.440624Q176.98438 24.534374 176.28125 25.3Q175.59375 26.05 173.76562 26.05L171.5625 26.05L171.5625 29.55L170.42188 29.55ZM171.5625 25.05L173.78125 25.05Q174.89062 25.05 175.34375 24.64375Q175.8125 24.221874 175.8125 23.471874Q175.8125 22.940624 175.53125 22.565624Q175.26562 22.175 174.82812 22.05Q174.53125 21.971874 173.76562 21.971874L171.5625 21.971874L171.5625 25.05ZM178.29688 22.175L178.29688 20.95625L179.35938 20.95625L179.35938 22.175L178.29688 22.175ZM178.29688 29.55L178.29688 23.33125L179.35938 23.33125L179.35938 29.55L178.29688 29.55ZM183.01562 29.55L180.65625 23.33125L181.76562 23.33125L183.10938 27.05Q183.3125 27.659374 183.5 28.3Q183.64062 27.815624 183.89062 27.128124L185.28125 23.33125L186.35938 23.33125L184.0 29.55L183.01562 29.55ZM185.90625 26.440624Q185.90625 24.70625 186.85938 23.878124Q187.65625 23.190624 188.8125 23.190624Q190.09375 23.190624 190.90625 24.034374Q191.73438 24.8625 191.73438 26.346874Q191.73438 27.55 191.375 28.2375Q191.01562 28.925 190.3125 29.315624Q189.625 29.690624 188.8125 29.690624Q187.51562 29.690624 186.70312 28.8625Q185.90625 28.01875 185.90625 26.440624ZM186.98438 26.440624Q186.98438 27.628124 187.5 28.221874Q188.03125 28.815624 188.8125 28.815624Q189.60938 28.815624 190.125 28.221874Q190.64062 27.628124 190.64062 26.409374Q190.64062 25.253124 190.10938 24.659374Q189.59375 24.065624 188.8125 24.065624Q188.03125 24.065624 187.5 24.659374Q186.98438 25.2375 186.98438 26.440624ZM195.59375 28.6125L195.75 29.534374Q195.29688 29.628124 194.95312 29.628124Q194.375 29.628124 194.0625 29.45625Q193.75 29.26875 193.60938 28.971874Q193.48438 28.675 193.48438 27.721874L193.48438 24.14375L192.71875 24.14375L192.71875 23.33125L193.48438 23.33125L193.48438 21.784374L194.53125 21.159374L194.53125 23.33125L195.59375 23.33125L195.59375 24.14375L194.53125 24.14375L194.53125 27.784374Q194.53125 28.2375 194.57812 28.3625Q194.64062 28.4875 194.76562 28.565624Q194.89062 28.64375 195.125 28.64375Q195.3125 28.64375 195.59375 28.6125ZM199.29688 31.940624L199.29688 23.33125L200.25 23.33125L200.25 24.128124Q200.59375 23.659374 201.01562 23.425Q201.45312 23.190624 202.0625 23.190624Q202.85938 23.190624 203.46875 23.596874Q204.07812 24.003124 204.375 24.753124Q204.6875 25.503124 204.6875 26.39375Q204.6875 27.346874 204.34375 28.1125Q204.01562 28.878124 203.35938 29.284374Q202.70312 29.690624 201.98438 29.690624Q201.45312 29.690624 201.03125 29.471874Q200.60938 29.2375 200.34375 28.909374L200.34375 31.940624L199.29688 31.940624ZM200.25 26.471874Q200.25 27.675 200.73438 28.253124Q201.21875 28.815624 201.90625 28.815624Q202.60938 28.815624 203.10938 28.221874Q203.60938 27.628124 203.60938 26.378124Q203.60938 25.190624 203.125 24.6125Q202.64062 24.01875 201.95312 24.01875Q201.28125 24.01875 200.76562 24.64375Q200.25 25.26875 200.25 26.471874ZM205.90625 26.440624Q205.90625 24.70625 206.85938 23.878124Q207.65625 23.190624 208.8125 23.190624Q210.09375 23.190624 210.90625 24.034374Q211.73438 24.8625 211.73438 26.346874Q211.73438 27.55 211.375 28.2375Q211.01562 28.925 210.3125 29.315624Q209.625 29.690624 208.8125 29.690624Q207.51562 29.690624 206.70312 28.8625Q205.90625 28.01875 205.90625 26.440624ZM206.98438 26.440624Q206.98438 27.628124 207.5 28.221874Q208.03125 28.815624 208.8125 28.815624Q209.60938 28.815624 210.125 28.221874Q210.64062 27.628124 210.64062 26.409374Q210.64062 25.253124 210.10938 24.659374Q209.59375 24.065624 208.8125 24.065624Q208.03125 24.065624 207.5 24.659374Q206.98438 25.2375 206.98438 26.440624ZM213.29688 22.175L213.29688 20.95625L214.35938 20.95625L214.35938 22.175L213.29688 22.175ZM213.29688 29.55L213.29688 23.33125L214.35938 23.33125L214.35938 29.55L213.29688 29.55ZM216.29688 29.55L216.29688 23.33125L217.23438 23.33125L217.23438 24.20625Q217.92188 23.190624 219.21875 23.190624Q219.78125 23.190624 220.25 23.39375Q220.73438 23.596874 220.96875 23.925Q221.20312 24.253124 221.29688 24.690624Q221.34375 24.9875 221.34375 25.721874L221.34375 29.55L220.29688 29.55L220.29688 25.76875Q220.29688 25.1125 220.17188 24.8Q220.04688 24.4875 219.73438 24.3Q219.42188 24.096874 219.0 24.096874Q218.32812 24.096874 217.82812 24.534374Q217.34375 24.95625 217.34375 26.14375L217.34375 29.55L216.29688 29.55ZM225.59375 28.6125L225.75 29.534374Q225.29688 29.628124 224.95312 29.628124Q224.375 29.628124 224.0625 29.45625Q223.75 29.26875 223.60938 28.971874Q223.48438 28.675 223.48438 27.721874L223.48438 24.14375L222.71875 24.14375L222.71875 23.33125L223.48438 23.33125L223.48438 21.784374L224.53125 21.159374L224.53125 23.33125L225.59375 23.33125L225.59375 24.14375L224.53125 24.14375L224.53125 27.784374Q224.53125 28.2375 224.57812 28.3625Q224.64062 28.4875 224.76562 28.565624Q224.89062 28.64375 225.125 28.64375Q225.3125 28.64375 225.59375 28.6125Z" fill-rule="nonzero"/><path stroke="#ea4335" stroke-width="4.0" stroke-linecap="butt" d="M241.5 25.55L253.5 25.55" fill-rule="nonzero"/><path fill="#1a1a1a" d="M266.35938 27.26875L267.39062 27.409374Q267.21875 28.471874 266.51562 29.08125Q265.8125 29.690624 264.79688 29.690624Q263.51562 29.690624 262.73438 28.8625Q261.96875 28.01875 261.96875 26.45625Q261.96875 25.45625 262.29688 24.70625Q262.64062 23.940624 263.3125 23.565624Q264.0 23.190624 264.8125 23.190624Q265.8125 23.190624 266.45312 23.70625Q267.10938 24.20625 267.29688 25.159374L266.26562 25.315624Q266.125 24.690624 265.75 24.378124Q265.375 24.05 264.84375 24.05Q264.04688 24.05 263.54688 24.628124Q263.04688 25.190624 263.04688 26.425Q263.04688 27.690624 263.53125 28.253124Q264.01562 28.815624 264.78125 28.815624Q265.40625 28.815624 265.8125 28.440624Q266.23438 28.065624 266.35938 27.26875ZM267.875 27.690624L268.90625 27.534374Q269.0 28.159374 269.39062 28.4875Q269.79688 28.815624 270.53125 28.815624Q271.25 28.815624 271.59375 28.534374Q271.95312 28.2375 271.95312 27.83125Q271.95312 27.471874 271.64062 27.26875Q271.42188 27.128124 270.5625 26.909374Q269.40625 26.6125 268.95312 26.409374Q268.51562 26.190624 268.28125 25.815624Q268.04688 25.440624 268.04688 24.971874Q268.04688 24.565624 268.23438 24.20625Q268.42188 23.846874 268.75 23.6125Q269.0 23.440624 269.42188 23.315624Q269.84375 23.190624 270.34375 23.190624Q271.0625 23.190624 271.60938 23.409374Q272.17188 23.6125 272.4375 23.971874Q272.70312 24.33125 272.79688 24.925L271.76562 25.065624Q271.70312 24.596874 271.35938 24.33125Q271.03125 24.05 270.40625 24.05Q269.6875 24.05 269.375 24.3Q269.0625 24.534374 269.0625 24.8625Q269.0625 25.065624 269.1875 25.221874Q269.32812 25.39375 269.59375 25.503124Q269.75 25.565624 270.53125 25.76875Q271.65625 26.08125 272.09375 26.26875Q272.53125 26.45625 272.78125 26.815624Q273.03125 27.175 273.03125 27.721874Q273.03125 28.253124 272.71875 28.721874Q272.42188 29.175 271.84375 29.440624Q271.26562 29.690624 270.53125 29.690624Q269.3125 29.690624 268.67188 29.190624Q268.04688 28.675 267.875 27.690624ZM275.29688 31.940624L275.29688 23.33125L276.25 23.33125L276.25 24.128124Q276.59375 23.659374 277.01562 23.425Q277.45312 23.190624 278.0625 23.190624Q278.85938 23.190624 279.46875 23.596874Q280.07812 24.003124 280.375 24.753124Q280.6875 25.503124 280.6875 26.39375Q280.6875 27.346874 280.34375 28.1125Q280.01562 28.878124 279.35938 29.284374Q278.70312 29.690624 277.98438 29.690624Q277.45312 29.690624 277.03125 29.471874Q276.60938 29.2375 276.34375 28.909374L276.34375 31.940624L275.29688 31.940624ZM276.25 26.471874Q276.25 27.675 276.73438 28.253124Q277.21875 28.815624 277.90625 28.815624Q278.60938 28.815624 279.10938 28.221874Q279.60938 27.628124 279.60938 26.378124Q279.60938 25.190624 279.125 24.6125Q278.64062 24.01875 277.95312 24.01875Q277.28125 24.01875 276.76562 24.64375Q276.25 25.26875 276.25 26.471874ZM282.26562 29.55L282.26562 20.95625L283.32812 20.95625L283.32812 29.55L282.26562 29.55ZM285.29688 22.175L285.29688 20.95625L286.35938 20.95625L286.35938 22.175L285.29688 22.175ZM285.29688 29.55L285.29688 23.33125L286.35938 23.33125L286.35938 29.55L285.29688 29.55ZM288.29688 29.55L288.29688 23.33125L289.23438 23.33125L289.23438 24.20625Q289.92188 23.190624 291.21875 23.190624Q291.78125 23.190624 292.25 23.39375Q292.73438 23.596874 292.96875 23.925Q293.20312 24.253124 293.29688 24.690624Q293.34375 24.9875 293.34375 25.721874L293.34375 29.55L292.29688 29.55L292.29688 25.76875Q292.29688 25.1125 292.17188 24.8Q292.04688 24.4875 291.73438 24.3Q291.42188 24.096874 291.0 24.096874Q290.32812 24.096874 289.82812 24.534374Q289.34375 24.95625 289.34375 26.14375L289.34375 29.55L288.29688 29.55ZM299.54688 27.55L300.64062 27.675Q300.39062 28.628124 299.6875 29.159374Q298.98438 29.690624 297.90625 29.690624Q296.54688 29.690624 295.73438 28.846874Q294.9375 28.003124 294.9375 26.4875Q294.9375 24.925 295.75 24.065624Q296.5625 23.190624 297.84375 23.190624Q299.09375 23.190624 299.875 24.034374Q300.67188 24.878124 300.67188 26.425Q300.67188 26.51875 300.67188 26.70625L296.03125 26.70625Q296.09375 27.7375 296.60938 28.284374Q297.125 28.815624 297.90625 28.815624Q298.48438 28.815624 298.89062 28.51875Q299.3125 28.20625 299.54688 27.55ZM296.09375 25.846874L299.5625 25.846874Q299.5 25.05 299.17188 24.659374Q298.65625 24.05 297.85938 24.05Q297.125 24.05 296.625 24.534374Q296.14062 25.01875 296.09375 25.846874Z" fill-rule="nonzero"/><path stroke="#4285f4" stroke-width="4.0" stroke-linecap="butt" d="M317.5 25.55L329.5 25.55" fill-rule="nonzero"/><path fill="#1a1a1a" d="M342.35938 27.26875L343.39062 27.409374Q343.21875 28.471874 342.51562 29.08125Q341.8125 29.690624 340.79688 29.690624Q339.51562 29.690624 338.73438 28.8625Q337.96875 28.01875 337.96875 26.45625Q337.96875 25.45625 338.29688 24.70625Q338.64062 23.940624 339.3125 23.565624Q340.0 23.190624 340.8125 23.190624Q341.8125 23.190624 342.45312 23.70625Q343.10938 24.20625 343.29688 25.159374L342.26562 25.315624Q342.125 24.690624 341.75 24.378124Q341.375 24.05 340.84375 24.05Q340.04688 24.05 339.54688 24.628124Q339.04688 25.190624 339.04688 26.425Q339.04688 27.690624 339.53125 28.253124Q340.01562 28.815624 340.78125 28.815624Q341.40625 28.815624 341.8125 28.440624Q342.23438 28.065624 342.35938 27.26875ZM343.875 27.690624L344.90625 27.534374Q345.0 28.159374 345.39062 28.4875Q345.79688 28.815624 346.53125 28.815624Q347.25 28.815624 347.59375 28.534374Q347.95312 28.2375 347.95312 27.83125Q347.95312 27.471874 347.64062 27.26875Q347.42188 27.128124 346.5625 26.909374Q345.40625 26.6125 344.95312 26.409374Q344.51562 26.190624 344.28125 25.815624Q344.04688 25.440624 344.04688 24.971874Q344.04688 24.565624 344.23438 24.20625Q344.42188 23.846874 344.75 23.6125Q345.0 23.440624 345.42188 23.315624Q345.84375 23.190624 346.34375 23.190624Q347.0625 23.190624 347.60938 23.409374Q348.17188 23.6125 348.4375 23.971874Q348.70312 24.33125 348.79688 24.925L347.76562 25.065624Q347.70312 24.596874 347.35938 24.33125Q347.03125 24.05 346.40625 24.05Q345.6875 24.05 345.375 24.3Q345.0625 24.534374 345.0625 24.8625Q345.0625 25.065624 345.1875 25.221874Q345.32812 25.39375 345.59375 25.503124Q345.75 25.565624 346.53125 25.76875Q347.65625 26.08125 348.09375 26.26875Q348.53125 26.45625 348.78125 26.815624Q349.03125 27.175 349.03125 27.721874Q349.03125 28.253124 348.71875 28.721874Q348.42188 29.175 347.84375 29.440624Q347.26562 29.690624 346.53125 29.690624Q345.3125 29.690624 344.67188 29.190624Q344.04688 28.675 343.875 27.690624ZM351.29688 31.940624L351.29688 23.33125L352.25 23.33125L352.25 24.128124Q352.59375 23.659374 353.01562 23.425Q353.45312 23.190624 354.0625 23.190624Q354.85938 23.190624 355.46875 23.596874Q356.07812 24.003124 356.375 24.753124Q356.6875 25.503124 356.6875 26.39375Q356.6875 27.346874 356.34375 28.1125Q356.01562 28.878124 355.35938 29.284374Q354.70312 29.690624 353.98438 29.690624Q353.45312 29.690624 353.03125 29.471874Q352.60938 29.2375 352.34375 28.909374L352.34375 31.940624L351.29688 31.940624ZM352.25 26.471874Q352.25 27.675 352.73438 28.253124Q353.21875 28.815624 353.90625 28.815624Q354.60938 28.815624 355.10938 28.221874Q355.60938 27.628124 355.60938 26.378124Q355.60938 25.190624 355.125 24.6125Q354.64062 24.01875 353.95312 24.01875Q353.28125 24.01875 352.76562 24.64375Q352.25 25.26875 352.25 26.471874ZM358.26562 29.55L358.26562 20.95625L359.32812 20.95625L359.32812 29.55L358.26562 29.55ZM361.29688 22.175L361.29688 20.95625L362.35938 20.95625L362.35938 22.175L361.29688 22.175ZM361.29688 29.55L361.29688 23.33125L362.35938 23.33125L362.35938 29.55L361.29688 29.55ZM364.29688 29.55L364.29688 23.33125L365.23438 23.33125L365.23438 24.20625Q365.92188 23.190624 367.21875 23.190624Q367.78125 23.190624 368.25 23.39375Q368.73438 23.596874 368.96875 23.925Q369.20312 24.253124 369.29688 24.690624Q369.34375 24.9875 369.34375 25.721874L369.34375 29.55L368.29688 29.55L368.29688 25.76875Q368.29688 25.1125 368.17188 24.8Q368.04688 24.4875 367.73438 24.3Q367.42188 24.096874 367.0 24.096874Q366.32812 24.096874 365.82812 24.534374Q365.34375 24.95625 365.34375 26.14375L365.34375 29.55L364.29688 29.55ZM375.54688 27.55L376.64062 27.675Q376.39062 28.628124 375.6875 29.159374Q374.98438 29.690624 373.90625 29.690624Q372.54688 29.690624 371.73438 28.846874Q370.9375 28.003124 370.9375 26.4875Q370.9375 24.925 371.75 24.065624Q372.5625 23.190624 373.84375 23.190624Q375.09375 23.190624 375.875 24.034374Q376.67188 24.878124 376.67188 26.425Q376.67188 26.51875 376.67188 26.70625L372.03125 26.70625Q372.09375 27.7375 372.60938 28.284374Q373.125 28.815624 373.90625 28.815624Q374.48438 28.815624 374.89062 28.51875Q375.3125 28.20625 375.54688 27.55ZM372.09375 25.846874L375.5625 25.846874Q375.5 25.05 375.17188 24.659374Q374.65625 24.05 373.85938 24.05Q373.125 24.05 372.625 24.534374Q372.14062 25.01875 372.09375 25.846874ZM378.39062 29.55L378.39062 20.95625L380.10938 20.95625L382.14062 27.034374Q382.42188 27.89375 382.54688 28.315624Q382.6875 27.846874 383.0 26.940624L385.0625 20.95625L386.59375 20.95625L386.59375 29.55L385.5 29.55L385.5 22.3625L383.0 29.55L381.96875 29.55L379.48438 22.2375L379.48438 29.55L378.39062 29.55ZM386.90625 26.440624Q386.90625 24.70625 387.85938 23.878124Q388.65625 23.190624 389.8125 23.190624Q391.09375 23.190624 391.90625 24.034374Q392.73438 24.8625 392.73438 26.346874Q392.73438 27.55 392.375 28.2375Q392.01562 28.925 391.3125 29.315624Q390.625 29.690624 389.8125 29.690624Q388.51562 29.690624 387.70312 28.8625Q386.90625 28.01875 386.90625 26.440624ZM387.98438 26.440624Q387.98438 27.628124 388.5 28.221874Q389.03125 28.815624 389.8125 28.815624Q390.60938 28.815624 391.125 28.221874Q391.64062 27.628124 391.64062 26.409374Q391.64062 25.253124 391.10938 24.659374Q390.59375 24.065624 389.8125 24.065624Q389.03125 24.065624 388.5 24.659374Q387.98438 25.2375 387.98438 26.440624ZM394.29688 29.55L394.29688 23.33125L395.23438 23.33125L395.23438 24.20625Q395.92188 23.190624 397.21875 23.190624Q397.78125 23.190624 398.25 23.39375Q398.73438 23.596874 398.96875 23.925Q399.20312 24.253124 399.29688 24.690624Q399.34375 24.9875 399.34375 25.721874L399.34375 29.55L398.29688 29.55L398.29688 25.76875Q398.29688 25.1125 398.17188 24.8Q398.04688 24.4875 397.73438 24.3Q397.42188 24.096874 397.0 24.096874Q396.32812 24.096874 395.82812 24.534374Q395.34375 24.95625 395.34375 26.14375L395.34375 29.55L394.29688 29.55ZM400.90625 26.440624Q400.90625 24.70625 401.85938 23.878124Q402.65625 23.190624 403.8125 23.190624Q405.09375 23.190624 405.90625 24.034374Q406.73438 24.8625 406.73438 26.346874Q406.73438 27.55 406.375 28.2375Q406.01562 28.925 405.3125 29.315624Q404.625 29.690624 403.8125 29.690624Q402.51562 29.690624 401.70312 28.8625Q400.90625 28.01875 400.90625 26.440624ZM401.98438 26.440624Q401.98438 27.628124 402.5 28.221874Q403.03125 28.815624 403.8125 28.815624Q404.60938 28.815624 405.125 28.221874Q405.64062 27.628124 405.64062 26.409374Q405.64062 25.253124 405.10938 24.659374Q404.59375 24.065624 403.8125 24.065624Q403.03125 24.065624 402.5 24.659374Q401.98438 25.2375 401.98438 26.440624ZM410.59375 28.6125L410.75 29.534374Q410.29688 29.628124 409.95312 29.628124Q409.375 29.628124 409.0625 29.45625Q408.75 29.26875 408.60938 28.971874Q408.48438 28.675 408.48438 27.721874L408.48438 24.14375L407.71875 24.14375L407.71875 23.33125L408.48438 23.33125L408.48438 21.784374L409.53125 21.159374L409.53125 23.33125L410.59375 23.33125L410.59375 24.14375L409.53125 24.14375L409.53125 27.784374Q409.53125 28.2375 409.57812 28.3625Q409.64062 28.4875 409.76562 28.565624Q409.89062 28.64375 410.125 28.64375Q410.3125 28.64375 410.59375 28.6125Z" fill-rule="nonzero"/></svg>