<svg width="596" height="371" viewBox="0 0 596 371" fill="none" xmlns="http://www.w3.org/2000/svg">
<path d="M204.773 38.1818C203.955 38.1818 203.25 37.9886 202.659 37.6023C202.068 37.2159 201.614 36.6837 201.295 36.0057C200.977 35.3277 200.818 34.553 200.818 33.6818C200.818 32.7955 200.981 32.0133 201.307 31.3352C201.636 30.6534 202.095 30.1212 202.682 29.7386C203.273 29.3523 203.962 29.1591 204.75 29.1591C205.364 29.1591 205.917 29.2727 206.409 29.5C206.902 29.7273 207.305 30.0455 207.619 30.4545C207.934 30.8636 208.129 31.3409 208.205 31.8864H206.864C206.761 31.4886 206.534 31.1364 206.182 30.8295C205.833 30.5189 205.364 30.3636 204.773 30.3636C204.25 30.3636 203.792 30.5 203.398 30.7727C203.008 31.0417 202.703 31.4223 202.483 31.9148C202.267 32.4034 202.159 32.9773 202.159 33.6364C202.159 34.3106 202.265 34.8977 202.477 35.3977C202.693 35.8977 202.996 36.286 203.386 36.5625C203.78 36.839 204.242 36.9773 204.773 36.9773C205.121 36.9773 205.438 36.9167 205.722 36.7955C206.006 36.6742 206.246 36.5 206.443 36.2727C206.64 36.0455 206.78 35.7727 206.864 35.4545H208.205C208.129 35.9697 207.941 36.4337 207.642 36.8466C207.347 37.2557 206.955 37.5814 206.466 37.8239C205.981 38.0625 205.417 38.1818 204.773 38.1818ZM216.347 31.2273L215.142 31.5682C215.066 31.3674 214.955 31.1723 214.807 30.983C214.663 30.7898 214.466 30.6307 214.216 30.5057C213.966 30.3807 213.646 30.3182 213.256 30.3182C212.722 30.3182 212.277 30.4413 211.92 30.6875C211.568 30.9299 211.392 31.2386 211.392 31.6136C211.392 31.947 211.513 32.2102 211.756 32.4034C211.998 32.5966 212.377 32.7576 212.892 32.8864L214.188 33.2045C214.968 33.3939 215.549 33.6837 215.932 34.0739C216.314 34.4602 216.506 34.9583 216.506 35.5682C216.506 36.0682 216.362 36.5152 216.074 36.9091C215.79 37.303 215.392 37.6136 214.881 37.8409C214.369 38.0682 213.775 38.1818 213.097 38.1818C212.206 38.1818 211.47 37.9886 210.886 37.6023C210.303 37.2159 209.934 36.6515 209.778 35.9091L211.051 35.5909C211.172 36.0606 211.402 36.4129 211.739 36.6477C212.08 36.8826 212.525 37 213.074 37C213.699 37 214.195 36.8674 214.562 36.6023C214.934 36.3333 215.119 36.0114 215.119 35.6364C215.119 35.3333 215.013 35.0795 214.801 34.875C214.589 34.6667 214.263 34.5114 213.824 34.4091L212.369 34.0682C211.57 33.8788 210.983 33.5852 210.608 33.1875C210.237 32.786 210.051 32.2841 210.051 31.6818C210.051 31.1894 210.189 30.7538 210.466 30.375C210.746 29.9962 211.127 29.6989 211.608 29.483C212.093 29.267 212.642 29.1591 213.256 29.1591C214.119 29.1591 214.797 29.3485 215.29 29.7273C215.786 30.1061 216.138 30.6061 216.347 31.2273ZM218.524 41.2727V29.2727H219.82V30.6591H219.979C220.077 30.5076 220.214 30.3144 220.388 30.0795C220.566 29.8409 220.82 29.6288 221.149 29.4432C221.482 29.2538 221.933 29.1591 222.501 29.1591C223.236 29.1591 223.884 29.3428 224.445 29.7102C225.005 30.0777 225.443 30.5985 225.757 31.2727C226.071 31.947 226.229 32.7424 226.229 33.6591C226.229 34.5833 226.071 35.3845 225.757 36.0625C225.443 36.7367 225.007 37.2595 224.45 37.6307C223.893 37.9981 223.251 38.1818 222.524 38.1818C221.964 38.1818 221.515 38.089 221.178 37.9034C220.84 37.714 220.581 37.5 220.399 37.2614C220.217 37.0189 220.077 36.8182 219.979 36.6591H219.865V41.2727H218.524ZM219.842 33.6364C219.842 34.2955 219.939 34.8769 220.132 35.3807C220.325 35.8807 220.607 36.2727 220.979 36.5568C221.35 36.8371 221.804 36.9773 222.342 36.9773C222.903 36.9773 223.371 36.8295 223.746 36.5341C224.125 36.2348 224.409 35.8333 224.598 35.3295C224.791 34.822 224.888 34.2576 224.888 33.6364C224.888 33.0227 224.793 32.4697 224.604 31.9773C224.418 31.4811 224.136 31.089 223.757 30.8011C223.382 30.5095 222.911 30.3636 222.342 30.3636C221.797 30.3636 221.339 30.5019 220.967 30.7784C220.596 31.0511 220.316 31.4337 220.126 31.9261C219.937 32.4148 219.842 32.9848 219.842 33.6364ZM229.615 26.3636V38H228.274V26.3636H229.615ZM232.071 38V29.2727H233.412V38H232.071ZM232.753 27.8182C232.491 27.8182 232.266 27.7292 232.077 27.5511C231.891 27.3731 231.798 27.1591 231.798 26.9091C231.798 26.6591 231.891 26.4451 232.077 26.267C232.266 26.089 232.491 26 232.753 26C233.014 26 233.238 26.089 233.423 26.267C233.613 26.4451 233.707 26.6591 233.707 26.9091C233.707 27.1591 233.613 27.3731 233.423 27.5511C233.238 27.7292 233.014 27.8182 232.753 27.8182ZM237.209 32.75V38H235.868V29.2727H237.163V30.6364H237.277C237.482 30.1932 237.792 29.8371 238.209 29.5682C238.625 29.2955 239.163 29.1591 239.822 29.1591C240.413 29.1591 240.93 29.2803 241.374 29.5227C241.817 29.7614 242.161 30.125 242.408 30.6136C242.654 31.0985 242.777 31.7121 242.777 32.4545V38H241.436V32.5455C241.436 31.8598 241.258 31.3258 240.902 30.9432C240.546 30.5568 240.057 30.3636 239.436 30.3636C239.008 30.3636 238.625 30.4564 238.288 30.642C237.955 30.8277 237.692 31.0985 237.499 31.4545C237.305 31.8106 237.209 32.2424 237.209 32.75ZM248.886 38.1818C248.045 38.1818 247.32 37.9962 246.71 37.625C246.104 37.25 245.636 36.7273 245.307 36.0568C244.981 35.3826 244.818 34.5985 244.818 33.7045C244.818 32.8106 244.981 32.0227 245.307 31.3409C245.636 30.6553 246.095 30.1212 246.682 29.7386C247.273 29.3523 247.962 29.1591 248.75 29.1591C249.205 29.1591 249.653 29.2348 250.097 29.3864C250.54 29.5379 250.943 29.7841 251.307 30.125C251.67 30.4621 251.96 30.9091 252.176 31.4659C252.392 32.0227 252.5 32.7083 252.5 33.5227V34.0909H245.773V32.9318H251.136C251.136 32.4394 251.038 32 250.841 31.6136C250.648 31.2273 250.371 30.9223 250.011 30.6989C249.655 30.4754 249.235 30.3636 248.75 30.3636C248.216 30.3636 247.754 30.4962 247.364 30.7614C246.977 31.0227 246.68 31.3636 246.472 31.7841C246.263 32.2045 246.159 32.6553 246.159 33.1364V33.9091C246.159 34.5682 246.273 35.1269 246.5 35.5852C246.731 36.0398 247.051 36.3864 247.46 36.625C247.869 36.8598 248.345 36.9773 248.886 36.9773C249.239 36.9773 249.557 36.928 249.841 36.8295C250.129 36.7273 250.377 36.5758 250.585 36.375C250.794 36.1705 250.955 35.9167 251.068 35.6136L252.364 35.9773C252.227 36.4167 251.998 36.803 251.676 37.1364C251.354 37.4659 250.956 37.7235 250.483 37.9091C250.009 38.0909 249.477 38.1818 248.886 38.1818ZM254.722 26.3636H256.403L260.358 36.0227H260.494L264.449 26.3636H266.131V38H264.812V29.1591H264.699L261.062 38H259.79L256.153 29.1591H256.04V38H254.722V26.3636ZM272.32 38.1818C271.532 38.1818 270.84 37.9943 270.246 37.6193C269.655 37.2443 269.193 36.7197 268.859 36.0455C268.53 35.3712 268.365 34.5833 268.365 33.6818C268.365 32.7727 268.53 31.9792 268.859 31.3011C269.193 30.6231 269.655 30.0966 270.246 29.7216C270.84 29.3466 271.532 29.1591 272.32 29.1591C273.107 29.1591 273.797 29.3466 274.388 29.7216C274.982 30.0966 275.445 30.6231 275.774 31.3011C276.107 31.9792 276.274 32.7727 276.274 33.6818C276.274 34.5833 276.107 35.3712 275.774 36.0455C275.445 36.7197 274.982 37.2443 274.388 37.6193C273.797 37.9943 273.107 38.1818 272.32 38.1818ZM272.32 36.9773C272.918 36.9773 273.411 36.8239 273.797 36.517C274.183 36.2102 274.469 35.8068 274.655 35.3068C274.84 34.8068 274.933 34.2652 274.933 33.6818C274.933 33.0985 274.84 32.5549 274.655 32.0511C274.469 31.5473 274.183 31.1402 273.797 30.8295C273.411 30.5189 272.918 30.3636 272.32 30.3636C271.721 30.3636 271.229 30.5189 270.842 30.8295C270.456 31.1402 270.17 31.5473 269.984 32.0511C269.799 32.5549 269.706 33.0985 269.706 33.6818C269.706 34.2652 269.799 34.8068 269.984 35.3068C270.17 35.8068 270.456 36.2102 270.842 36.517C271.229 36.8239 271.721 36.9773 272.32 36.9773ZM279.662 32.75V38H278.321V29.2727H279.616V30.6364H279.73C279.935 30.1932 280.245 29.8371 280.662 29.5682C281.079 29.2955 281.616 29.1591 282.276 29.1591C282.866 29.1591 283.384 29.2803 283.827 29.5227C284.27 29.7614 284.615 30.125 284.861 30.6136C285.107 31.0985 285.23 31.7121 285.23 32.4545V38H283.889V32.5455C283.889 31.8598 283.711 31.3258 283.355 30.9432C282.999 30.5568 282.51 30.3636 281.889 30.3636C281.461 30.3636 281.079 30.4564 280.741 30.642C280.408 30.8277 280.145 31.0985 279.952 31.4545C279.759 31.8106 279.662 32.2424 279.662 32.75ZM291.226 38.1818C290.438 38.1818 289.747 37.9943 289.152 37.6193C288.561 37.2443 288.099 36.7197 287.766 36.0455C287.436 35.3712 287.271 34.5833 287.271 33.6818C287.271 32.7727 287.436 31.9792 287.766 31.3011C288.099 30.6231 288.561 30.0966 289.152 29.7216C289.747 29.3466 290.438 29.1591 291.226 29.1591C292.014 29.1591 292.703 29.3466 293.294 29.7216C293.889 30.0966 294.351 30.6231 294.68 31.3011C295.014 31.9792 295.18 32.7727 295.18 33.6818C295.18 34.5833 295.014 35.3712 294.68 36.0455C294.351 36.7197 293.889 37.2443 293.294 37.6193C292.703 37.9943 292.014 38.1818 291.226 38.1818ZM291.226 36.9773C291.824 36.9773 292.317 36.8239 292.703 36.517C293.089 36.2102 293.375 35.8068 293.561 35.3068C293.747 34.8068 293.839 34.2652 293.839 33.6818C293.839 33.0985 293.747 32.5549 293.561 32.0511C293.375 31.5473 293.089 31.1402 292.703 30.8295C292.317 30.5189 291.824 30.3636 291.226 30.3636C290.627 30.3636 290.135 30.5189 289.749 30.8295C289.362 31.1402 289.076 31.5473 288.891 32.0511C288.705 32.5549 288.612 33.0985 288.612 33.6818C288.612 34.2652 288.705 34.8068 288.891 35.3068C289.076 35.8068 289.362 36.2102 289.749 36.517C290.135 36.8239 290.627 36.9773 291.226 36.9773ZM301.023 29.2727V30.4091H296.5V29.2727H301.023ZM297.818 27.1818H299.159V35.5C299.159 35.8788 299.214 36.1629 299.324 36.3523C299.438 36.5379 299.581 36.6629 299.756 36.7273C299.934 36.7879 300.121 36.8182 300.318 36.8182C300.466 36.8182 300.587 36.8106 300.682 36.7955C300.777 36.7765 300.852 36.7614 300.909 36.75L301.182 37.9545C301.091 37.9886 300.964 38.0227 300.801 38.0568C300.638 38.0947 300.432 38.1136 300.182 38.1136C299.803 38.1136 299.432 38.0322 299.068 37.8693C298.708 37.7064 298.409 37.4583 298.17 37.125C297.936 36.7917 297.818 36.3712 297.818 35.8636V27.1818Z" fill="#81B0FF"/>
<rect x="178" y="24" width="17" height="17" rx="8.5" fill="#81B0FF"/>
<path d="M367.773 38.1818C366.955 38.1818 366.25 37.9886 365.659 37.6023C365.068 37.2159 364.614 36.6837 364.295 36.0057C363.977 35.3277 363.818 34.553 363.818 33.6818C363.818 32.7955 363.981 32.0133 364.307 31.3352C364.636 30.6534 365.095 30.1212 365.682 29.7386C366.273 29.3523 366.962 29.1591 367.75 29.1591C368.364 29.1591 368.917 29.2727 369.409 29.5C369.902 29.7273 370.305 30.0455 370.619 30.4545C370.934 30.8636 371.129 31.3409 371.205 31.8864H369.864C369.761 31.4886 369.534 31.1364 369.182 30.8295C368.833 30.5189 368.364 30.3636 367.773 30.3636C367.25 30.3636 366.792 30.5 366.398 30.7727C366.008 31.0417 365.703 31.4223 365.483 31.9148C365.267 32.4034 365.159 32.9773 365.159 33.6364C365.159 34.3106 365.265 34.8977 365.477 35.3977C365.693 35.8977 365.996 36.286 366.386 36.5625C366.78 36.839 367.242 36.9773 367.773 36.9773C368.121 36.9773 368.438 36.9167 368.722 36.7955C369.006 36.6742 369.246 36.5 369.443 36.2727C369.64 36.0455 369.78 35.7727 369.864 35.4545H371.205C371.129 35.9697 370.941 36.4337 370.642 36.8466C370.347 37.2557 369.955 37.5814 369.466 37.8239C368.981 38.0625 368.417 38.1818 367.773 38.1818ZM379.347 31.2273L378.142 31.5682C378.066 31.3674 377.955 31.1723 377.807 30.983C377.663 30.7898 377.466 30.6307 377.216 30.5057C376.966 30.3807 376.646 30.3182 376.256 30.3182C375.722 30.3182 375.277 30.4413 374.92 30.6875C374.568 30.9299 374.392 31.2386 374.392 31.6136C374.392 31.947 374.513 32.2102 374.756 32.4034C374.998 32.5966 375.377 32.7576 375.892 32.8864L377.188 33.2045C377.968 33.3939 378.549 33.6837 378.932 34.0739C379.314 34.4602 379.506 34.9583 379.506 35.5682C379.506 36.0682 379.362 36.5152 379.074 36.9091C378.79 37.303 378.392 37.6136 377.881 37.8409C377.369 38.0682 376.775 38.1818 376.097 38.1818C375.206 38.1818 374.47 37.9886 373.886 37.6023C373.303 37.2159 372.934 36.6515 372.778 35.9091L374.051 35.5909C374.172 36.0606 374.402 36.4129 374.739 36.6477C375.08 36.8826 375.525 37 376.074 37C376.699 37 377.195 36.8674 377.562 36.6023C377.934 36.3333 378.119 36.0114 378.119 35.6364C378.119 35.3333 378.013 35.0795 377.801 34.875C377.589 34.6667 377.263 34.5114 376.824 34.4091L375.369 34.0682C374.57 33.8788 373.983 33.5852 373.608 33.1875C373.237 32.786 373.051 32.2841 373.051 31.6818C373.051 31.1894 373.189 30.7538 373.466 30.375C373.746 29.9962 374.127 29.6989 374.608 29.483C375.093 29.267 375.642 29.1591 376.256 29.1591C377.119 29.1591 377.797 29.3485 378.29 29.7273C378.786 30.1061 379.138 30.6061 379.347 31.2273ZM381.524 41.2727V29.2727H382.82V30.6591H382.979C383.077 30.5076 383.214 30.3144 383.388 30.0795C383.566 29.8409 383.82 29.6288 384.149 29.4432C384.482 29.2538 384.933 29.1591 385.501 29.1591C386.236 29.1591 386.884 29.3428 387.445 29.7102C388.005 30.0777 388.443 30.5985 388.757 31.2727C389.071 31.947 389.229 32.7424 389.229 33.6591C389.229 34.5833 389.071 35.3845 388.757 36.0625C388.443 36.7367 388.007 37.2595 387.45 37.6307C386.893 37.9981 386.251 38.1818 385.524 38.1818C384.964 38.1818 384.515 38.089 384.178 37.9034C383.84 37.714 383.581 37.5 383.399 37.2614C383.217 37.0189 383.077 36.8182 382.979 36.6591H382.865V41.2727H381.524ZM382.842 33.6364C382.842 34.2955 382.939 34.8769 383.132 35.3807C383.325 35.8807 383.607 36.2727 383.979 36.5568C384.35 36.8371 384.804 36.9773 385.342 36.9773C385.903 36.9773 386.371 36.8295 386.746 36.5341C387.125 36.2348 387.409 35.8333 387.598 35.3295C387.791 34.822 387.888 34.2576 387.888 33.6364C387.888 33.0227 387.793 32.4697 387.604 31.9773C387.418 31.4811 387.136 31.089 386.757 30.8011C386.382 30.5095 385.911 30.3636 385.342 30.3636C384.797 30.3636 384.339 30.5019 383.967 30.7784C383.596 31.0511 383.316 31.4337 383.126 31.9261C382.937 32.4148 382.842 32.9848 382.842 33.6364ZM392.615 26.3636V38H391.274V26.3636H392.615ZM395.071 38V29.2727H396.412V38H395.071ZM395.753 27.8182C395.491 27.8182 395.266 27.7292 395.077 27.5511C394.891 27.3731 394.798 27.1591 394.798 26.9091C394.798 26.6591 394.891 26.4451 395.077 26.267C395.266 26.089 395.491 26 395.753 26C396.014 26 396.238 26.089 396.423 26.267C396.613 26.4451 396.707 26.6591 396.707 26.9091C396.707 27.1591 396.613 27.3731 396.423 27.5511C396.238 27.7292 396.014 27.8182 395.753 27.8182ZM400.209 32.75V38H398.868V29.2727H400.163V30.6364H400.277C400.482 30.1932 400.792 29.8371 401.209 29.5682C401.625 29.2955 402.163 29.1591 402.822 29.1591C403.413 29.1591 403.93 29.2803 404.374 29.5227C404.817 29.7614 405.161 30.125 405.408 30.6136C405.654 31.0985 405.777 31.7121 405.777 32.4545V38H404.436V32.5455C404.436 31.8598 404.258 31.3258 403.902 30.9432C403.546 30.5568 403.057 30.3636 402.436 30.3636C402.008 30.3636 401.625 30.4564 401.288 30.642C400.955 30.8277 400.692 31.0985 400.499 31.4545C400.305 31.8106 400.209 32.2424 400.209 32.75ZM411.886 38.1818C411.045 38.1818 410.32 37.9962 409.71 37.625C409.104 37.25 408.636 36.7273 408.307 36.0568C407.981 35.3826 407.818 34.5985 407.818 33.7045C407.818 32.8106 407.981 32.0227 408.307 31.3409C408.636 30.6553 409.095 30.1212 409.682 29.7386C410.273 29.3523 410.962 29.1591 411.75 29.1591C412.205 29.1591 412.653 29.2348 413.097 29.3864C413.54 29.5379 413.943 29.7841 414.307 30.125C414.67 30.4621 414.96 30.9091 415.176 31.4659C415.392 32.0227 415.5 32.7083 415.5 33.5227V34.0909H408.773V32.9318H414.136C414.136 32.4394 414.038 32 413.841 31.6136C413.648 31.2273 413.371 30.9223 413.011 30.6989C412.655 30.4754 412.235 30.3636 411.75 30.3636C411.216 30.3636 410.754 30.4962 410.364 30.7614C409.977 31.0227 409.68 31.3636 409.472 31.7841C409.263 32.2045 409.159 32.6553 409.159 33.1364V33.9091C409.159 34.5682 409.273 35.1269 409.5 35.5852C409.731 36.0398 410.051 36.3864 410.46 36.625C410.869 36.8598 411.345 36.9773 411.886 36.9773C412.239 36.9773 412.557 36.928 412.841 36.8295C413.129 36.7273 413.377 36.5758 413.585 36.375C413.794 36.1705 413.955 35.9167 414.068 35.6136L415.364 35.9773C415.227 36.4167 414.998 36.803 414.676 37.1364C414.354 37.4659 413.956 37.7235 413.483 37.9091C413.009 38.0909 412.477 38.1818 411.886 38.1818Z" fill="#F86F64"/>
<rect x="341" y="24" width="17" height="17" rx="8.5" fill="#F86F64"/>
<path d="M64.5 74.5V323.5" stroke="white" stroke-miterlimit="10"/>
<path d="M117.5 74.5V323.5" stroke="#CCCCCC" stroke-miterlimit="10"/>
<path d="M171.5 74.5V323.5" stroke="#CCCCCC" stroke-miterlimit="10"/>
<path d="M225.5 74.5V323.5" stroke="#CCCCCC" stroke-miterlimit="10"/>
<path d="M278.5 74.5V323.5" stroke="#CCCCCC" stroke-miterlimit="10"/>
<path d="M332.5 74.5V323.5" stroke="#CCCCCC" stroke-miterlimit="10"/>
<path d="M385.5 74.5V323.5" stroke="#CCCCCC" stroke-miterlimit="10"/>
<path d="M439.5 74.5V323.5" stroke="#CCCCCC" stroke-miterlimit="10"/>
<path d="M493.5 74.5V323.5" stroke="#CCCCCC" stroke-miterlimit="10"/>
<path d="M546.5 74.5V323.5" stroke="#CCCCCC" stroke-miterlimit="10"/>
<path d="M57.5 323.5H553.5" stroke="white" stroke-miterlimit="10"/>
<path d="M57.5 240.5H553.5" stroke="#CCCCCC" stroke-miterlimit="10"/>
<path d="M57.5 157.5H553.5" stroke="#CCCCCC" stroke-miterlimit="10"/>
<path d="M57.5 74.5H553.5" stroke="#CCCCCC" stroke-miterlimit="10"/>
<mask id="mask0_686_1237" style="mask-type:luminance" maskUnits="userSpaceOnUse" x="57" y="74" width="497" height="250">
<path d="M57.55 74.9165H553.45V323.45H57.55V74.9165Z" fill="white"/>
</mask>
<g mask="url(#mask0_686_1237)">
<path d="M64.3579 74.9165L69.7166 77.279L75.0753 79.5988L80.4341 81.833L85.7928 83.9389L91.1515 85.8738L96.5102 87.5948L101.869 89.0593L107.228 90.2244L112.586 91.0473L117.945 91.4854L123.304 91.5469L128.662 91.4442L134.021 91.441L139.38 91.8007L144.739 92.7869L150.097 94.6631L155.456 97.6928L160.815 102.14L166.174 108.267L171.532 116.339L176.891 126.497L182.25 138.398L187.608 151.577L192.967 165.571L198.326 179.913L203.685 194.141L209.043 207.788L214.402 220.391L219.761 231.485L225.119 240.605L230.478 247.415L235.837 252.089L241.196 254.93L246.554 256.24L251.913 256.321L257.272 255.477L262.63 254.009L267.989 252.22L273.348 250.413L278.707 248.89L284.065 247.895L289.424 247.437L294.783 247.466L300.141 247.934L305.5 248.791L310.859 249.986L316.218 251.472L321.576 253.198L326.935 255.116L332.294 257.174L337.652 259.332L343.011 261.577L348.37 263.904L353.729 266.307L359.087 268.78L364.446 271.319L369.805 273.919L375.163 276.574L380.522 279.278L385.881 282.028L391.24 284.812L396.598 287.607L401.957 290.383L407.316 293.113L412.674 295.766L418.033 298.314L423.392 300.728L428.751 302.98L434.109 305.041L439.468 306.881L444.827 308.48L450.185 309.852L455.544 311.017L460.903 311.997L466.262 312.812L471.62 313.484L476.979 314.034L482.338 314.484L487.696 314.854L493.055 315.165L498.414 315.437L503.773 315.675L509.131 315.883L514.49 316.066L519.849 316.226L525.207 316.368L530.566 316.494L535.925 316.61L541.284 316.718L546.642 316.822" stroke="#EA4335" stroke-width="2" stroke-miterlimit="10"/>
</g>
<mask id="mask1_686_1237" style="mask-type:luminance" maskUnits="userSpaceOnUse" x="57" y="74" width="497" height="250">
<path d="M57.55 74.9165H553.45V323.45H57.55V74.9165Z" fill="white"/>
</mask>
<g mask="url(#mask1_686_1237)">
<path d="M64.3579 74.9165L69.7166 76.5436L75.0753 78.1242L80.4341 79.6784L85.7928 81.2259L91.1515 82.7867L96.5102 84.3807L101.869 86.0276L107.228 87.7474L112.586 89.5601L117.945 91.4854L123.304 93.419L128.662 95.2896L134.021 97.1669L139.38 99.1203L144.739 101.22L150.097 103.534L155.456 106.134L160.815 109.088L166.174 112.467L171.532 116.339L176.891 123.034L182.25 134.067L187.608 148.291L192.967 164.554L198.326 181.708L203.685 198.603L209.043 214.09L214.402 227.019L219.761 236.241L225.119 240.605L230.478 242.021L235.837 243.19L241.196 244.156L246.554 244.963L251.913 245.654L257.272 246.272L262.63 246.861L267.989 247.465L273.348 248.127L278.707 248.89L284.065 249.681L289.424 250.414L294.783 251.114L300.141 251.806L305.5 252.514L310.859 253.264L316.218 254.08L321.576 254.987L326.935 256.01L332.294 257.174L337.652 258.653L343.011 260.554L348.37 262.804L353.729 265.326L359.087 268.048L364.446 270.893L369.805 273.789L375.163 276.659L380.522 279.43L385.881 282.028L391.24 284.625L396.598 287.396L401.957 290.266L407.316 293.162L412.674 296.008L418.033 298.729L423.392 301.252L428.751 303.501L434.109 305.402L439.468 306.881L444.827 308.095L450.185 309.245L455.544 310.323L460.903 311.321L466.262 312.231L471.62 313.045L476.979 313.753L482.338 314.348L487.696 314.822L493.055 315.165L498.414 315.421L503.773 315.638L509.131 315.825L514.49 315.987L519.849 316.132L525.207 316.266L530.566 316.395L535.925 316.526L541.284 316.667L546.642 316.822" stroke="#4285F4" stroke-width="2" stroke-miterlimit="10"/>
</g>
<mask id="mask2_686_1237" style="mask-type:luminance" maskUnits="userSpaceOnUse" x="57" y="74" width="497" height="250">
<path d="M57.55 74.9165H553.45V323.45H57.55V74.9165Z" fill="white"/>
</mask>
<g mask="url(#mask2_686_1237)">
<path d="M68.8579 74.9165C68.8579 77.4018 66.8432 79.4165 64.3579 79.4165C61.8726 79.4165 59.8579 77.4018 59.8579 74.9165C59.8579 72.4312 61.8726 70.4165 64.3579 70.4165C66.8432 70.4165 68.8579 72.4312 68.8579 74.9165Z" fill="#FBBC04"/>
</g>
<mask id="mask3_686_1237" style="mask-type:luminance" maskUnits="userSpaceOnUse" x="57" y="74" width="497" height="250">
<path d="M57.55 74.9165H553.45V323.45H57.55V74.9165Z" fill="white"/>
</mask>
<g mask="url(#mask3_686_1237)">
<path d="M122.445 91.4854C122.445 93.9706 120.43 95.9854 117.945 95.9854C115.46 95.9854 113.445 93.9706 113.445 91.4854C113.445 89.0001 115.46 86.9854 117.945 86.9854C120.43 86.9854 122.445 89.0001 122.445 91.4854Z" fill="#FBBC04"/>
</g>
<mask id="mask4_686_1237" style="mask-type:luminance" maskUnits="userSpaceOnUse" x="57" y="74" width="497" height="250">
<path d="M57.55 74.9165H553.45V323.45H57.55V74.9165Z" fill="white"/>
</mask>
<g mask="url(#mask4_686_1237)">
<path d="M176.032 116.339C176.032 118.824 174.018 120.839 171.532 120.839C169.047 120.839 167.032 118.824 167.032 116.339C167.032 113.853 169.047 111.839 171.532 111.839C174.018 111.839 176.032 113.853 176.032 116.339Z" fill="#FBBC04"/>
</g>
<mask id="mask5_686_1237" style="mask-type:luminance" maskUnits="userSpaceOnUse" x="57" y="74" width="497" height="250">
<path d="M57.55 74.9165H553.45V323.45H57.55V74.9165Z" fill="white"/>
</mask>
<g mask="url(#mask5_686_1237)">
<path d="M229.619 240.605C229.619 243.091 227.605 245.105 225.119 245.105C222.634 245.105 220.619 243.091 220.619 240.605C220.619 238.12 222.634 236.105 225.119 236.105C227.605 236.105 229.619 238.12 229.619 240.605Z" fill="#FBBC04"/>
</g>
<mask id="mask6_686_1237" style="mask-type:luminance" maskUnits="userSpaceOnUse" x="57" y="74" width="497" height="250">
<path d="M57.55 74.9165H553.45V323.45H57.55V74.9165Z" fill="white"/>
</mask>
<g mask="url(#mask6_686_1237)">
<path d="M283.206 248.89C283.206 251.375 281.192 253.39 278.706 253.39C276.221 253.39 274.206 251.375 274.206 248.89C274.206 246.405 276.221 244.39 278.706 244.39C281.192 244.39 283.206 246.405 283.206 248.89Z" fill="#FBBC04"/>
</g>
<mask id="mask7_686_1237" style="mask-type:luminance" maskUnits="userSpaceOnUse" x="57" y="74" width="497" height="250">
<path d="M57.55 74.9165H553.45V323.45H57.55V74.9165Z" fill="white"/>
</mask>
<g mask="url(#mask7_686_1237)">
<path d="M336.794 257.174C336.794 259.66 334.779 261.674 332.294 261.674C329.808 261.674 327.794 259.66 327.794 257.174C327.794 254.689 329.808 252.674 332.294 252.674C334.779 252.674 336.794 254.689 336.794 257.174Z" fill="#FBBC04"/>
</g>
<mask id="mask8_686_1237" style="mask-type:luminance" maskUnits="userSpaceOnUse" x="57" y="74" width="497" height="250">
<path d="M57.55 74.9165H553.45V323.45H57.55V74.9165Z" fill="white"/>
</mask>
<g mask="url(#mask8_686_1237)">
<path d="M390.381 282.028C390.381 284.513 388.366 286.528 385.881 286.528C383.396 286.528 381.381 284.513 381.381 282.028C381.381 279.542 383.396 277.528 385.881 277.528C388.366 277.528 390.381 279.542 390.381 282.028Z" fill="#FBBC04"/>
</g>
<mask id="mask9_686_1237" style="mask-type:luminance" maskUnits="userSpaceOnUse" x="57" y="74" width="497" height="250">
<path d="M57.55 74.9165H553.45V323.45H57.55V74.9165Z" fill="white"/>
</mask>
<g mask="url(#mask9_686_1237)">
<path d="M443.968 306.881C443.968 309.366 441.953 311.381 439.468 311.381C436.983 311.381 434.968 309.366 434.968 306.881C434.968 304.396 436.983 302.381 439.468 302.381C441.953 302.381 443.968 304.396 443.968 306.881Z" fill="#FBBC04"/>
</g>
<mask id="mask10_686_1237" style="mask-type:luminance" maskUnits="userSpaceOnUse" x="57" y="74" width="497" height="250">
<path d="M57.55 74.9165H553.45V323.45H57.55V74.9165Z" fill="white"/>
</mask>
<g mask="url(#mask10_686_1237)">
<path d="M497.555 315.165C497.555 317.651 495.54 319.665 493.055 319.665C490.57 319.665 488.555 317.651 488.555 315.165C488.555 312.68 490.57 310.665 493.055 310.665C495.54 310.665 497.555 312.68 497.555 315.165Z" fill="#FBBC04"/>
</g>
<mask id="mask11_686_1237" style="mask-type:luminance" maskUnits="userSpaceOnUse" x="57" y="74" width="497" height="250">
<path d="M57.55 74.9165H553.45V323.45H57.55V74.9165Z" fill="white"/>
</mask>
<g mask="url(#mask11_686_1237)">
<path d="M551.142 316.822C551.142 319.308 549.128 321.322 546.642 321.322C544.157 321.322 542.142 319.308 542.142 316.822C542.142 314.337 544.157 312.322 546.642 312.322C549.128 312.322 551.142 314.337 551.142 316.822Z" fill="#FBBC04"/>
</g>
<path d="M46.1364 81.1591C45.3864 81.1591 44.7178 81.0303 44.1307 80.7727C43.5473 80.5152 43.0833 80.1572 42.7386 79.6989C42.3977 79.2367 42.2121 78.7008 42.1818 78.0909H43.6136C43.6439 78.4659 43.7727 78.7898 44 79.0625C44.2273 79.3314 44.5246 79.5398 44.892 79.6875C45.2595 79.8352 45.6667 79.9091 46.1136 79.9091C46.6136 79.9091 47.0568 79.822 47.4432 79.6477C47.8295 79.4735 48.1326 79.2311 48.3523 78.9205C48.572 78.6098 48.6818 78.25 48.6818 77.8409C48.6818 77.4129 48.5758 77.036 48.3636 76.7102C48.1515 76.3807 47.8409 76.1231 47.4318 75.9375C47.0227 75.7519 46.5227 75.6591 45.9318 75.6591H45V74.4091H45.9318C46.3939 74.4091 46.7992 74.3258 47.1477 74.1591C47.5 73.9924 47.7746 73.7576 47.9716 73.4545C48.1723 73.1515 48.2727 72.7955 48.2727 72.3864C48.2727 71.9924 48.1856 71.6496 48.0114 71.358C47.8371 71.0663 47.5909 70.839 47.2727 70.6761C46.9583 70.5133 46.5871 70.4318 46.1591 70.4318C45.7576 70.4318 45.3788 70.5057 45.0227 70.6534C44.6705 70.7973 44.3826 71.0076 44.1591 71.2841C43.9356 71.5568 43.8144 71.8864 43.7955 72.2727H42.4318C42.4545 71.6629 42.6383 71.1288 42.983 70.6705C43.3277 70.2083 43.7784 69.8485 44.3352 69.5909C44.8958 69.3333 45.5114 69.2045 46.1818 69.2045C46.9015 69.2045 47.5189 69.3504 48.0341 69.642C48.5492 69.9299 48.9451 70.3106 49.2216 70.7841C49.4981 71.2576 49.6364 71.7689 49.6364 72.3182C49.6364 72.9735 49.464 73.5322 49.1193 73.9943C48.7784 74.4564 48.3144 74.7765 47.7273 74.9545V75.0455C48.4621 75.1667 49.036 75.4792 49.4489 75.983C49.8617 76.483 50.0682 77.1023 50.0682 77.8409C50.0682 78.4735 49.8958 79.0417 49.5511 79.5455C49.2102 80.0455 48.7443 80.4394 48.1534 80.7273C47.5625 81.0152 46.8902 81.1591 46.1364 81.1591Z" fill="white"/>
<path d="M42.2045 163V161.977L46.0455 157.773C46.4962 157.28 46.8674 156.852 47.1591 156.489C47.4508 156.121 47.6667 155.777 47.8068 155.455C47.9508 155.129 48.0227 154.788 48.0227 154.432C48.0227 154.023 47.9242 153.669 47.7273 153.369C47.5341 153.07 47.2689 152.839 46.9318 152.676C46.5947 152.513 46.2159 152.432 45.7955 152.432C45.3485 152.432 44.9583 152.525 44.625 152.71C44.2955 152.892 44.0398 153.148 43.858 153.477C43.6799 153.807 43.5909 154.193 43.5909 154.636H42.25C42.25 153.955 42.4072 153.356 42.7216 152.841C43.036 152.326 43.464 151.924 44.0057 151.636C44.5511 151.348 45.1629 151.205 45.8409 151.205C46.5227 151.205 47.1269 151.348 47.6534 151.636C48.1799 151.924 48.5928 152.312 48.892 152.801C49.1913 153.29 49.3409 153.833 49.3409 154.432C49.3409 154.86 49.2633 155.278 49.108 155.688C48.9564 156.093 48.6913 156.545 48.3125 157.045C47.9375 157.542 47.4167 158.148 46.75 158.864L44.1364 161.659V161.75H49.5455V163H42.2045Z" fill="white"/>
<path d="M48.2955 233.364V245H46.8864V234.841H46.8182L43.9773 236.727V235.295L46.8864 233.364H48.2955Z" fill="white"/>
<path d="M46 327.159C45.1439 327.159 44.4148 326.926 43.8125 326.46C43.2102 325.991 42.75 325.311 42.4318 324.42C42.1136 323.527 41.9545 322.447 41.9545 321.182C41.9545 319.924 42.1136 318.85 42.4318 317.96C42.7538 317.066 43.2159 316.384 43.8182 315.915C44.4242 315.441 45.1515 315.205 46 315.205C46.8485 315.205 47.5739 315.441 48.1761 315.915C48.7822 316.384 49.2443 317.066 49.5625 317.96C49.8845 318.85 50.0455 319.924 50.0455 321.182C50.0455 322.447 49.8864 323.527 49.5682 324.42C49.25 325.311 48.7898 325.991 48.1875 326.46C47.5852 326.926 46.8561 327.159 46 327.159ZM46 325.909C46.8485 325.909 47.5076 325.5 47.9773 324.682C48.447 323.864 48.6818 322.697 48.6818 321.182C48.6818 320.174 48.5739 319.316 48.358 318.608C48.1458 317.9 47.839 317.36 47.4375 316.989C47.0398 316.617 46.5606 316.432 46 316.432C45.1591 316.432 44.5019 316.847 44.0284 317.676C43.5549 318.502 43.3182 319.67 43.3182 321.182C43.3182 322.189 43.4242 323.045 43.6364 323.75C43.8485 324.455 44.1534 324.991 44.5511 325.358C44.9527 325.725 45.4356 325.909 46 325.909Z" fill="white"/>
<path d="M64 348.159C63.1439 348.159 62.4148 347.926 61.8125 347.46C61.2102 346.991 60.75 346.311 60.4318 345.42C60.1136 344.527 59.9545 343.447 59.9545 342.182C59.9545 340.924 60.1136 339.85 60.4318 338.96C60.7538 338.066 61.2159 337.384 61.8182 336.915C62.4242 336.441 63.1515 336.205 64 336.205C64.8485 336.205 65.5739 336.441 66.1761 336.915C66.7822 337.384 67.2443 338.066 67.5625 338.96C67.8845 339.85 68.0455 340.924 68.0455 342.182C68.0455 343.447 67.8864 344.527 67.5682 345.42C67.25 346.311 66.7898 346.991 66.1875 347.46C65.5852 347.926 64.8561 348.159 64 348.159ZM64 346.909C64.8485 346.909 65.5076 346.5 65.9773 345.682C66.447 344.864 66.6818 343.697 66.6818 342.182C66.6818 341.174 66.5739 340.316 66.358 339.608C66.1458 338.9 65.839 338.36 65.4375 337.989C65.0398 337.617 64.5606 337.432 64 337.432C63.1591 337.432 62.5019 337.847 62.0284 338.676C61.5549 339.502 61.3182 340.67 61.3182 342.182C61.3182 343.189 61.4242 344.045 61.6364 344.75C61.8485 345.455 62.1534 345.991 62.5511 346.358C62.9527 346.725 63.4356 346.909 64 346.909Z" fill="white"/>
<path d="M118.295 336.364V348H116.886V337.841H116.818L113.977 339.727V338.295L116.886 336.364H118.295Z" fill="white"/>
<path d="M166.205 348V346.977L170.045 342.773C170.496 342.28 170.867 341.852 171.159 341.489C171.451 341.121 171.667 340.777 171.807 340.455C171.951 340.129 172.023 339.788 172.023 339.432C172.023 339.023 171.924 338.669 171.727 338.369C171.534 338.07 171.269 337.839 170.932 337.676C170.595 337.513 170.216 337.432 169.795 337.432C169.348 337.432 168.958 337.525 168.625 337.71C168.295 337.892 168.04 338.148 167.858 338.477C167.68 338.807 167.591 339.193 167.591 339.636H166.25C166.25 338.955 166.407 338.356 166.722 337.841C167.036 337.326 167.464 336.924 168.006 336.636C168.551 336.348 169.163 336.205 169.841 336.205C170.523 336.205 171.127 336.348 171.653 336.636C172.18 336.924 172.593 337.312 172.892 337.801C173.191 338.29 173.341 338.833 173.341 339.432C173.341 339.86 173.263 340.278 173.108 340.688C172.956 341.093 172.691 341.545 172.312 342.045C171.938 342.542 171.417 343.148 170.75 343.864L168.136 346.659V346.75H173.545V348H166.205Z" fill="white"/>
<path d="M224.136 348.159C223.386 348.159 222.718 348.03 222.131 347.773C221.547 347.515 221.083 347.157 220.739 346.699C220.398 346.237 220.212 345.701 220.182 345.091H221.614C221.644 345.466 221.773 345.79 222 346.062C222.227 346.331 222.525 346.54 222.892 346.688C223.259 346.835 223.667 346.909 224.114 346.909C224.614 346.909 225.057 346.822 225.443 346.648C225.83 346.473 226.133 346.231 226.352 345.92C226.572 345.61 226.682 345.25 226.682 344.841C226.682 344.413 226.576 344.036 226.364 343.71C226.152 343.381 225.841 343.123 225.432 342.938C225.023 342.752 224.523 342.659 223.932 342.659H223V341.409H223.932C224.394 341.409 224.799 341.326 225.148 341.159C225.5 340.992 225.775 340.758 225.972 340.455C226.172 340.152 226.273 339.795 226.273 339.386C226.273 338.992 226.186 338.65 226.011 338.358C225.837 338.066 225.591 337.839 225.273 337.676C224.958 337.513 224.587 337.432 224.159 337.432C223.758 337.432 223.379 337.506 223.023 337.653C222.67 337.797 222.383 338.008 222.159 338.284C221.936 338.557 221.814 338.886 221.795 339.273H220.432C220.455 338.663 220.638 338.129 220.983 337.67C221.328 337.208 221.778 336.848 222.335 336.591C222.896 336.333 223.511 336.205 224.182 336.205C224.902 336.205 225.519 336.35 226.034 336.642C226.549 336.93 226.945 337.311 227.222 337.784C227.498 338.258 227.636 338.769 227.636 339.318C227.636 339.973 227.464 340.532 227.119 340.994C226.778 341.456 226.314 341.777 225.727 341.955V342.045C226.462 342.167 227.036 342.479 227.449 342.983C227.862 343.483 228.068 344.102 228.068 344.841C228.068 345.473 227.896 346.042 227.551 346.545C227.21 347.045 226.744 347.439 226.153 347.727C225.563 348.015 224.89 348.159 224.136 348.159Z" fill="white"/>
<path d="M274.932 345.614V344.455L280.045 336.364H280.886V338.159H280.318L276.455 344.273V344.364H283.341V345.614H274.932ZM280.409 348V345.261V344.722V336.364H281.75V348H280.409Z" fill="white"/>
<path d="M333.841 348.159C333.174 348.159 332.574 348.027 332.04 347.761C331.506 347.496 331.078 347.133 330.756 346.67C330.434 346.208 330.258 345.682 330.227 345.091H331.591C331.644 345.617 331.883 346.053 332.307 346.398C332.735 346.739 333.246 346.909 333.841 346.909C334.318 346.909 334.742 346.797 335.114 346.574C335.489 346.35 335.782 346.044 335.994 345.653C336.21 345.259 336.318 344.814 336.318 344.318C336.318 343.811 336.206 343.358 335.983 342.96C335.763 342.559 335.46 342.242 335.074 342.011C334.688 341.78 334.246 341.663 333.75 341.659C333.394 341.655 333.028 341.71 332.653 341.824C332.278 341.934 331.97 342.076 331.727 342.25L330.409 342.091L331.114 336.364H337.159V337.614H332.295L331.886 341.045H331.955C332.193 340.856 332.492 340.699 332.852 340.574C333.212 340.449 333.587 340.386 333.977 340.386C334.689 340.386 335.324 340.557 335.881 340.898C336.441 341.235 336.881 341.697 337.199 342.284C337.521 342.871 337.682 343.542 337.682 344.295C337.682 345.038 337.515 345.701 337.182 346.284C336.852 346.864 336.398 347.322 335.818 347.659C335.239 347.992 334.58 348.159 333.841 348.159Z" fill="white"/>
<path d="M388.068 348.159C387.591 348.152 387.114 348.061 386.636 347.886C386.159 347.712 385.723 347.419 385.33 347.006C384.936 346.589 384.619 346.027 384.381 345.318C384.142 344.606 384.023 343.712 384.023 342.636C384.023 341.606 384.119 340.693 384.312 339.898C384.506 339.098 384.786 338.426 385.153 337.881C385.521 337.331 385.964 336.915 386.483 336.631C387.006 336.347 387.595 336.205 388.25 336.205C388.902 336.205 389.481 336.335 389.989 336.597C390.5 336.854 390.917 337.214 391.239 337.676C391.561 338.138 391.769 338.67 391.864 339.273H390.477C390.348 338.75 390.098 338.316 389.727 337.972C389.356 337.627 388.864 337.455 388.25 337.455C387.348 337.455 386.638 337.847 386.119 338.631C385.604 339.415 385.345 340.515 385.341 341.932H385.432C385.644 341.61 385.896 341.335 386.188 341.108C386.483 340.877 386.809 340.699 387.165 340.574C387.521 340.449 387.898 340.386 388.295 340.386C388.962 340.386 389.572 340.553 390.125 340.886C390.678 341.216 391.121 341.672 391.455 342.256C391.788 342.835 391.955 343.5 391.955 344.25C391.955 344.97 391.794 345.629 391.472 346.227C391.15 346.822 390.697 347.295 390.114 347.648C389.534 347.996 388.852 348.167 388.068 348.159ZM388.068 346.909C388.545 346.909 388.973 346.79 389.352 346.551C389.735 346.312 390.036 345.992 390.256 345.591C390.479 345.189 390.591 344.742 390.591 344.25C390.591 343.769 390.483 343.331 390.267 342.938C390.055 342.54 389.761 342.223 389.386 341.989C389.015 341.754 388.591 341.636 388.114 341.636C387.754 341.636 387.419 341.708 387.108 341.852C386.797 341.992 386.525 342.186 386.29 342.432C386.059 342.678 385.877 342.96 385.744 343.278C385.612 343.593 385.545 343.924 385.545 344.273C385.545 344.735 385.653 345.167 385.869 345.568C386.089 345.97 386.388 346.294 386.767 346.54C387.15 346.786 387.583 346.909 388.068 346.909Z" fill="white"/>
<path d="M438.568 348L443.773 337.705V337.614H437.773V336.364H445.227V337.682L440.045 348H438.568Z" fill="white"/>
<path d="M495.932 348.159C495.152 348.159 494.462 348.021 493.864 347.744C493.269 347.464 492.805 347.08 492.472 346.591C492.138 346.098 491.973 345.538 491.977 344.909C491.973 344.417 492.07 343.962 492.267 343.545C492.464 343.125 492.733 342.775 493.074 342.494C493.419 342.21 493.803 342.03 494.227 341.955V341.886C493.67 341.742 493.227 341.43 492.898 340.949C492.568 340.464 492.405 339.913 492.409 339.295C492.405 338.705 492.555 338.176 492.858 337.71C493.161 337.244 493.578 336.877 494.108 336.608C494.642 336.339 495.25 336.205 495.932 336.205C496.606 336.205 497.208 336.339 497.739 336.608C498.269 336.877 498.686 337.244 498.989 337.71C499.295 338.176 499.451 338.705 499.455 339.295C499.451 339.913 499.282 340.464 498.949 340.949C498.619 341.43 498.182 341.742 497.636 341.886V341.955C498.057 342.03 498.436 342.21 498.773 342.494C499.11 342.775 499.379 343.125 499.58 343.545C499.78 343.962 499.883 344.417 499.886 344.909C499.883 345.538 499.712 346.098 499.375 346.591C499.042 347.08 498.578 347.464 497.983 347.744C497.392 348.021 496.708 348.159 495.932 348.159ZM495.932 346.909C496.458 346.909 496.913 346.824 497.295 346.653C497.678 346.483 497.973 346.242 498.182 345.932C498.39 345.621 498.496 345.258 498.5 344.841C498.496 344.402 498.383 344.013 498.159 343.676C497.936 343.339 497.631 343.074 497.244 342.881C496.862 342.687 496.424 342.591 495.932 342.591C495.436 342.591 494.992 342.687 494.602 342.881C494.216 343.074 493.911 343.339 493.688 343.676C493.468 344.013 493.36 344.402 493.364 344.841C493.36 345.258 493.46 345.621 493.665 345.932C493.873 346.242 494.17 346.483 494.557 346.653C494.943 346.824 495.402 346.909 495.932 346.909ZM495.932 341.386C496.348 341.386 496.718 341.303 497.04 341.136C497.366 340.97 497.621 340.737 497.807 340.438C497.992 340.138 498.087 339.788 498.091 339.386C498.087 338.992 497.994 338.65 497.812 338.358C497.631 338.062 497.379 337.835 497.057 337.676C496.735 337.513 496.36 337.432 495.932 337.432C495.496 337.432 495.116 337.513 494.79 337.676C494.464 337.835 494.212 338.062 494.034 338.358C493.856 338.65 493.769 338.992 493.773 339.386C493.769 339.788 493.858 340.138 494.04 340.438C494.225 340.737 494.481 340.97 494.807 341.136C495.133 341.303 495.508 341.386 495.932 341.386Z" fill="white"/>
<path d="M549.909 336.205C550.386 336.208 550.864 336.299 551.341 336.477C551.818 336.655 552.254 336.951 552.648 337.364C553.042 337.773 553.358 338.331 553.597 339.04C553.835 339.748 553.955 340.636 553.955 341.705C553.955 342.739 553.856 343.657 553.659 344.46C553.466 345.259 553.186 345.934 552.818 346.483C552.455 347.032 552.011 347.449 551.489 347.733C550.97 348.017 550.383 348.159 549.727 348.159C549.076 348.159 548.494 348.03 547.983 347.773C547.475 347.511 547.059 347.15 546.733 346.688C546.411 346.222 546.205 345.682 546.114 345.068H547.5C547.625 345.602 547.873 346.044 548.244 346.392C548.619 346.737 549.114 346.909 549.727 346.909C550.625 346.909 551.333 346.517 551.852 345.733C552.375 344.949 552.636 343.841 552.636 342.409H552.545C552.333 342.727 552.081 343.002 551.79 343.233C551.498 343.464 551.174 343.642 550.818 343.767C550.462 343.892 550.083 343.955 549.682 343.955C549.015 343.955 548.403 343.79 547.847 343.46C547.294 343.127 546.85 342.67 546.517 342.091C546.188 341.508 546.023 340.841 546.023 340.091C546.023 339.379 546.182 338.727 546.5 338.136C546.822 337.542 547.273 337.068 547.852 336.716C548.436 336.364 549.121 336.193 549.909 336.205ZM549.909 337.455C549.432 337.455 549.002 337.574 548.619 337.812C548.241 338.047 547.939 338.366 547.716 338.767C547.496 339.165 547.386 339.606 547.386 340.091C547.386 340.576 547.492 341.017 547.705 341.415C547.92 341.809 548.214 342.123 548.585 342.358C548.96 342.589 549.386 342.705 549.864 342.705C550.223 342.705 550.559 342.634 550.869 342.494C551.18 342.35 551.451 342.155 551.682 341.909C551.917 341.659 552.1 341.377 552.233 341.062C552.366 340.744 552.432 340.413 552.432 340.068C552.432 339.614 552.322 339.187 552.102 338.79C551.886 338.392 551.587 338.07 551.205 337.824C550.826 337.578 550.394 337.455 549.909 337.455Z" fill="white"/>
</svg>
